<mxfile host="app.diagrams.net" modified="2020-12-28T10:15:15.911Z" agent="5.0 (Windows NT 6.1; Win64; x64) AppleWebKit/537.36 (KHTML, like Gecko) Chrome/87.0.4280.88 Safari/537.36" etag="z9PgU57N48Xr9NH6wNon" version="14.1.2" type="github">
  <diagram id="sqgtcgv9kGo3xE826Aom" name="Page-1">
    <mxGraphModel dx="1422" dy="737" grid="1" gridSize="10" guides="1" tooltips="1" connect="1" arrows="1" fold="1" page="1" pageScale="1" pageWidth="1200" pageHeight="1920" math="0" shadow="0">
      <root>
        <mxCell id="0" />
        <mxCell id="1" parent="0" />
        <mxCell id="qg_XtJprbJF_whPKpKyO-1" value="" style="shape=image;verticalLabelPosition=bottom;labelBackgroundColor=#ffffff;verticalAlign=top;aspect=fixed;imageAspect=0;image=data:image/png,iVBORw0KGgoAAAANSUhEUgAAAz0AAAI+CAYAAACWi2RvAAAgAElEQVR4Xuy9C7Ak1XnnebK8tsVDY/HwLjgQWpZBYRbx6NuAY5DWiKADUJvRg0WeHrWw5LZgxSgEBglhOwYwTYxGPAICsBYvHYPAIA1jYyw5CGgUUvBYNwbEvc2bWXlYrRAeegeBtDZCWntVufFP3a/m3NMnX1VZVVmZv4pQiL6VeR6/71Tm+Z/vO99JHB8IQAACEIAABCAAAQhAAAIdJpB0uG90DQIQgAAEIAABCEAAAhCAgEP0MAggAAEIQAACEIAABCAAgU4TQPR02rx0DgIQgAAEIAABCEAAAhBA9DAGIAABCEAAAhCAAAQgAIFOE0D0dNq8dA4CEIAABCAAAQhAAAIQQPQwBiAAAQhAAAIQgAAEIACBThNA9HTavHQOAhCAAAQgAAEIQAACEED0MAYgAAEIQAACEIAABCAAgU4TQPR02rx0DgIQgAAEIAABCEAAAhBA9DAGIAABCEAAAhCAAAQgAIFOE0D0dNq8dA4CEIAABCAAAQhAAAIQQPQwBiAAAQhAAAIQgAAEIACBThNA9HTavHQOAhCAAAQgAAEIQAACEED0MAYgAAEIQAACEIAABCAAgU4TQPR02rx0DgIQgAAEIAABCEAAAhBA9DAGIAABCEAAAhCAAAQgAIFOE0D0dNq8dA4CEIAABCAAAQhAAAIQQPQwBiAAAQhAAAIQgAAEIACBThNA9HTavHQOAhCAAAQgAAEIQAACEED0MAYgAAEIQAACEIAABCAAgU4TQPR02rx0DgIQgAAEIAABCEAAAhBA9DAGIAABCEAAAhCAAAQgAIFOE0D0dNq8dA4CEIAABCAAAQhAAAIQQPQwBiAAgYkJrFu37swkSf5s4oIoAAIQgMAcCSRJ8o7l5eWX5tgEqoYABKZEANEzJbAUC4E+EUD09Mna9BUC3SWA6OmubekZBBA9jAEIQGBiAiZ6NmzY4K688sqJy6MACEAAArMk8Bu/8Rtu165dDtEzS+rUBYHZEkD0zJY3tUGgkwQQPZ00K52CQG8IIHp6Y2o62mMCiJ4eG5+uQ6ApAoiepkhSDgQgMA8CiJ55UKdOCMyWAKJntrypDQKdJIDo6aRZ6RQEekMA0dMbU9PRHhNA9PTY+HQdAk0RQPQ0RZJyIACBeRBA9MyDOnVCYLYEED2z5U1tEOgkAURPJ81KpyDQGwKInt6Ymo72mACip8fGp+sQaIoAoqcpkpQDAQjMgwCiZx7UqRMCsyWA6Jktb2qDQCcJIHo6aVY6BYHeEED09MbUdLTHBBA9PTY+XYdAUwQQPU2RpBwIQGAeBBA986BOnRCYLQFEz2x5UxsEOkkA0dNJs9IpCPSGAKKnN6amoz0mgOjpsfHpOgSaIoDoaYok5UAAAvMggOiZB3XqhMBsCSB6Zsub2iDQSQKInk6alU5BoDcEED29MTUd7TEBRE+PjU/XIdAUAURPUyQpBwIQmAcBRM88qFMnBGZLANEzW97UBoFOEkD0dNKsE3XqO9/5jrvuuuvc1q1b3dve9rZKZX3ta19zL730kvv0pz9deP2NN97oTjjhBLd+/frsOtX1wAMPuC1btmT/feedd7oLLrjAveUtb3E/+clP3BVXXOG2b9++W5mnnXaa27x5s3v00Ueze8NyKzWaizpBANHTCTPSCQgUEkD0MEAgAIGJCSB6JkbYyQIkIvQpEjGh0Cj7t8qza/bdd9+s7FdeeSXK713vepe7/vrrM9G1vLzsXn75ZfeBD3zASVzpo//2BROip5PDsFKnED2VMHERBBaaAKJnoc1H4yHQDgKInnbYYZ6tkGC49dZbKzXh0ksvzQSHPqF354c//KG7+uqr3UUXXZR5arZt2+bOOuusNd6iOp4eaxCip5JpensRoqe3pqfjPSKA6OmRsekqBKZFANEzLbKLU+4tt9ziTjrpJHfIIYcUNtr3sujCojC4MFRNwuWcc84ZlS9PzkEHHRQNXTvwwAMzj9Drr7++5p6wcRJXb775JuFtizPUptJSRM9UsFIoBFpFANHTKnPQGAgsJgFEz2LarS2tzgsr098PPvjgkVdI7ZUn6Pzzz3fnnXdetqcn795QhPnXEd7WFsu3px2InvbYgpZAYFoEED3TIku5EOgRAURPj4wd6ao8MkV7a8JblEDgkksuycLXzNvjJx8wcWNhbn4iBPP2KJHBxz/+cffII49Ew+rM0yPPU+hNCr1N1j729PR3HCN6+mt7et4fAoie/tiankJgagQQPVNDu9AFS6BIlJRlY1MnQ69OzMuj6+TBefDBB93GjRszMfPCCy9knh/L5GbAzNMj8aMscps2bRqF3vmix8/u5ic+WGjwNL42AURPbWTcAIGFI4DoWTiT0WAItI8Aoqd9NplHixR6dvvtt7uzzz478+LUET26VwkOlGr66aefdo8//vgab5DvEdJ/n3LKKaPwtlgCBd/TE2OBV2ceI6S9dSJ62msbWgaBpgggepoiSTkQ6DEBRE+Pje91PRQ5YeIBXVokRixMbr/99hulmvbJPv/8826PPfZw99xzz5pzenSNPDaxTG8mlqqE3+Hp6e84RvT01/b0vD8EED39sTU9hcDUCCB6poZ2YQq2MDGdheOfjVM1vM0Ej87eUcY1eYssrXUIwbw0qkuHn+Z9ikQMnp6FGVozaSiiZyaYqQQCcyWA6JkrfiqHQDcIIHq6YcdJeqF9MgpJO/LII90dd9wxShddJnryvDsqT4JGyQrCPUGhYDHBdeihh7oXX3wxO+PHT34Q6xeiZxJrd+9eRE/3bEqPIBASQPQwJiAAgYkJIHomRrjQBSiM7e677x7twSnL5iYPzJYtW9yFF17owkxuIQgLkfO9NiZYLHObHzJnKa2fffZZ59dTFXDZXqCq5XDdYhFA9CyWvWgtBMYhgOgZhxr3QAACawggehgQEIDAIhNA9Cyy9Wg7BKoRQPRU48RVEIBAAQFED8MDAhBYZAKInkW2Hm2HQDUCiJ5qnLgKAhBA9DAGIACBjhJA9HTUsHQLAh4BRA/DAQIQmJgAnp6JEVIABCAwRwKInjnCp2oIzIgAomdGoKkGAl0mgOjZ3brTyg5mWc3yxlO4ET9MMuBv9LcyyjbvKzHBddddl2VTK8qKFvZZ9z3wwANZ0gL995133pkdPqqDSy3j2vbt23fripIbbN682T366KPZvbFyw/b4ZwRZIgU/7bW46ROmwQ7b5TdGrK6++uo12eBif7N7Ymzz7HTzzTdnh6vqE9pIfxMf9XHTpk3ukEMOKXx8VLWPFSKeTzzxRPQspC4/p4r6hujpq+Xpd58IIHr6ZG36CoEpEeij6NFE9YYbbhhNHMOJeRXRYxP/Aw44YJSW2Sa7p5xyirvtttsykeBPevMm70UTZX9SrfL9iXzVybX6o0+YPtofUtZnnbVTdBion4lNbdN5OxIjft98weSz9Nur83zsXv8g1DAjXF4fYyLFT5EdHraqvpaJnlAkxexVZazE6i76+VrK8EsuuSQTleHHF8vWx5jwvPTSSzNbhON7So+O1hSL6GmNKWgIBKZGANEzNbQUDIH+EOib6IlNfGMT2cMPP9zdfvvtTumT9bHJpj9B90eJPC5XXXVVNvnXCv8+++zjNAn1hU9dT084CmMel9CjoL7ceuutlQawTZJ1cR1PjxVeV/Tccsst7qSTThoJQfu3BFDemUAx3hKs9957rzvjjDMyj0tMGKk/oQ1jUMxTJnvVET06V+j8888fjQ+VbYJt27Ztu9lArE888cTd7ikylI25mPgK+xxeo3+/9NJLhUK30iBZgIsQPQtgJJoIgQkJIHomBMjtEICAc30TPXmr96FQCD0aZQd1aiyVeV7G8fTYGLWV/eOPP34U5hWrLxQWeWPc2nLQQQe5c845Z3SZ+q2/xULXTCBIpPj3hHXogNE333xzTXibrondo4n9CSecsEb0mDDV9Qol8w8sNVH3qU99KjvMVF4p/c0EkOrJ8+iUeXpCEZPHTm2S6PFFksqWSD755JMz4WuhgCrDWEv0hMIqrw7fWxSKZTE7/fTT14QthmOrqK9de+4herpmUfoDgd0JIHoYFRCAwMQE+iR6QpHgexH8fRqh1yMMV4p5bM4880y3Y8cO98orr6yxiR+uVcfTY20zoXHPPfdk5YYhalZm2d6eooFioWLnnXde5jnJC+8LBZV/XZXwtlgbVObRRx+dhRuaV03XmRjyhZK8Ja+99trIW2TtluDx9/uoLTpw9frrr3cPPfRQtp+pSMCozzGRUBTeFhM9N910k3vjjTfcJz7xicKwxrIDYH0PnC+arI8aG5dddllmJwufLDoI1vYfTfywaGkBiJ6WGoZmQaBBAoieBmFSFAT6SqBPoidv9btsn0ZM9MgbYpNJmxyfeuqpTqFNe+21l9tvv/1223hfd4yVeY7C8som0+H1Jsiee+65zAsjj4vEhrxasRA5X1iFG/DzvFg+21jonS82Y3zsfu3/0cdEj3mbwvvVrmuvvdYlSZKJHYkefSQYzBujJAnaO6M2mx2bED3y9KhsjQGxDMdHmIgh7G9ekoIiD2HRmOpLiBuip+6TheshsHgEED2LZzNaDIHWEeiT6MnL9lUmemL7JULvge3ZUPiSvAC+6KkrRiy0ThNz27OjgZOXYCDc/B8OsrKN9fK2PPjgg27jxo1ZprYXXngh23sSegjM0yPxE+4l8hn5m+z9MMHQU2SiQ+31wwf95A0mIHzRs+eee7pnnnkmC3sTbz/kT/f+4Ac/yDLP6fs6np664W15e3rUnyuuuGLUrjLRYrx0XyyZQeghlFdRHqUwBNFnrbLK7N66h9GYDUL0jAmO2yCwQAQQPQtkLJoKgbYSQPTsvolfImhpaSnbLK+JZV7oWDiZtaxlEjzmXShbiS+6rmyzuu5VWw8++OA1XqXQo1E0+TUhqLKUdc7C28o8PbF+lWW9y/P0mOg566yzMrEl74tN/vM8PTERaJN+fefvnVHIoWwYenN8T09MENcNbzNPj6X1NmH49NNPZ32ScCsKtQuZ2rjT/eE4CW0aaz+ip61PXdoFAQjUJYDoqUuM6yEAgd0I9En0jBveJmj+vfIeKDOWxMbzzz+fMdXGdXkl9Df7KNzN94jEJt3hJNgXWCZ6FBalia88OprM26b9vFTU4WQ3lgHN6vnxj3/s9thjD6c9Q35Ilvqg+tUniZHwjJ+q3quqnh6F14WeChN1JsBsT4+8Ugpf054da5cv/nzOEiDyuii1uDb/++cN+T8GP822/X0S0eOX7Yur2COozBNUFjqoNOOxs5gIb+OBDwEIdIUAoqcrlqQfEJgjgT6Jnrw9MmXhbSZ6tJJ/7LHHZgJBnoj7778/s9xRRx0V3Udie3xMNKieXbt2jbwYZZNdP0wsTLQgIeCfS2NDyO6RV8FEQZUVf9+jUuSNiAkTq3tST48lafBFi5ibGAvt53uO/M3/eWnJxSxvD1HMFk2JnjIuZePAvpfQVh9MsOr/JeieeuqpNUkNqtpjjo+dRqsmvK1RnBQGgVYSQPS00iw0CgKLRaBPokeWqTq5Da0YEw5+AoPYHg4/RbG8Q48//rg78sgj3X333TfKLKZ68ja4h5N3m+RLeKjsL37xi6OzYexQS7XJ6rnjjjuyyXDROTh5E2QTT9qfpNTQftrovBFeNrmvuqcnb+9VzIPjiztrV8jNPF2WGjsMV8wTw2WiJ29Pj3/AqHH0U2qH/IpET16GQctcp8QO8vSEni99H54TtVhPpuqtRfRUZ8WVEFhUAoieRbUc7YZAiwj0TfTEvABVQrXCzGWWVECeA33CjfiWalkTT30kRGyfSll9oTfFNrLHPDt+quItW7a4r3/962PVY4LFMrf5/bUJtlJKq22q58ILL6w8iq0sJRfQ4aSWec3+roLCJA2+58af+Ot8HglITfb9lM1+Y8zGquviiy/ezSMW9uczn/mMe+KJJ7J++R8TI/LkWfvy9g35+6i0h8jvTyzRhN+GsnTjsSQRodiz8tR+S9XN4aSVhygXQgACLSeA6Gm5gWgeBBaBQN9Ej2yiSbTOhfH3hCyCrWgjBKoQ6Nv4xtNTZVRwDQQWmwCiZ7HtR+sh0AoCfRQ9rQBPIyAAgUYIIHoawUghEGg1AURPq81D4yCwGAQQPYthJ1oJAQjECSB6GBkQ6D4BRE/3bUwPITB1AoieqSOmAghAYIoEED1ThEvREGgJAURPSwxBMyCwyAQWRfRo83/sLJI89trkrs3pdfbt+BnaijJqhYd/5p3/U2dchBvR7fyZ2Fkraufdd989Slhg9fgprv26bSO9/iaGhxxyiHv11Vezzfb65KW0rtOvadvHT9hQx6bqX1lK6Jid6vbH6qmbPKBuPVXGdexcpqKx6CfO8NOq23jZtGlTNmZsjJ533nnZIbZt+SB62mIJ2gGB6RFA9EyPLSVDoDcE5il6LIvZ5ZdfXmkSZemYLQtaaCTLcqa/W6azmBDwM4NZGWGK37KUv77wUB06NLQorbPfttjgip1/k5dK2fp0/PHHr0l37R8mqgxnBx10kFPKaZ11c/bZZ2fV2mGpOmtIB6lauuyYuKojemzS72epm9Q+fpY7n4+f+cyvI2bXPIZVfuB5h7/695ad8VSWxnsa3MK+aawq25tsXcRD3/3gBz9wf/RHf5Qd5qoxY+Nln332cUrRrXOqzjzzzOysoPAzL1GE6KkymrkGAotNANGz2Paj9RBoBYF5iZ4iUZE3qc0DZgIntqIfTvKKTrf3RUDVyagJizLR47fdJvM6vNS8LbG++R4Y/yDO2LXy5kh0SeC88cYb2SVanVdde++9926iR9+Fn/AcnTzRM2v7hO0IPW1mK/2/JvZlKcGt334K8DK+eeIqFIvhWULbtm1zdjjtrLlZm6uKnnA8jCMY63qumngIInqaoEgZEGg3AURPu+1D6yCwEATmJXo0yQxFhgGr42EIQ9K2bt064q5J7emnn74mLC7vcNK8sKQqq/1VJ3o26ZVQCr1VapcmyHb2jD/hfPrpp521T3VddtllTt6xULiEnp699torO1fnS1/6ktPZMTt27FgzJmPeJf+CItFTVeQ1YZ9xRM+dd97pLrjgAucfFBoKT50bZGfzhIIv78cbjp8i24eHrM5yXFcVcUVnJRU9wGJnRtn1Rb/taTwUET3ToEqZEGgXAURPu+xBayCwkATmIXqqTv7KVuzDcKZwQqoJtwSCf4hluDdEnpFdu3btJkJ8Y/r7KPR3hfnooM4qH5sclvUlnESaWFCI0Ve/+lX3wQ9+MKvuiiuucGeccUYWDhhOqqvu6bE9GirPwu5iB2SWibmyPk1qH3mvrrnmmt0wX3nlle6FF17IvFcmanzbh1xidtI1vuipYsu8a/JC2PIm/9Pmpj1PGtcnnHBCNk7Cw01971Oe2NP400G3+oh1kiSV98fl7TmbhHHRvYieaZGlXAi0hwCipz22oCUQWFgC8xA9k06K8jZz192wrnbcdtttme1CL4hvUAkSTSBDAWXX5ImDsmQItkdCk3cJFkteoHJtpd4XI7FJdF4d+rs8Sv6G87w9F3lhTCYQb7755kp7roxHU/ax8sLDNpsObysTIeGP2xJDmOCKiayqwj5PXPtjoe64tvFjoscXZWG7QtFj405jXuNSInvjxo3u3nvvddu3b8+aW+Tl0fdlYrnphyWip2milAeB9hFA9LTPJrQIAgtHYF6i55FHHinczxIDaZ4MfRdLZhAmC9CGa+1vscmalZkX1lU39M3KiyUB0Hd55SkEL2xDLIxO/TUxVJSRy4SRbTYPvVA2SVeI27XXXpvte9mwYcMIcZ7oUfuff/55d9xxx625Pm+QT8M+vvfK+qG/WXKGaXp68rLaxfofCtI6IV7T4GZC54gjjsiEixIZyAP04osvrhHvJnpef/11d8455zhf4MbGRVlbxWYcwTfJgxPRMwk97oXAYhBA9CyGnWglBFpNoI2ipyzTWQjUJv3a+6KPZSTTf4cT16LQp1iYUp6gsTZYQoZPfvKT7stf/rLzM6r55VX1JvgTez+MLkzWcOKJJ44yxinjVriHJebp0d9ee+0196Mf/WhNaJg/uVW/NDF+z3vek+2FOuWUU7L02H5mulnaR/Z76qmnsjYpE53+X8kf/uzP/qwwvE3XSOQVfUKPRehBqiN6/MQcGoexLHaz5GZjT/3XAoO8Pvp/fQ4//PBMNCr1tNiedNJJzkRP1YdV6O3y70P0VKXIdRCAQFUCiJ6qpLgOAhDIJTAv0RM7Z6bMTGVhPkWZ2TTp23fffXPP+smbqJXVGXpodL0mvBIJN910k/P3z4T9i02qTWTlhdOZmJEACJMJ5AkricKrrroq8zypPUpXbaFPapOJHiVGuO+++zKPgFJeW/KEMgbWr7Lr6trHwqQuvPDCLMmDmGrcHH300dkEvuk9PaE9Yt612N4n67/x32+//Srvf9G9TXNTmRqXS0tL7uGHHx6NQV/A23hXZr+8Marr//zP/zwTSUVJIcJxTXhb2ZOM7yEAgboEED11iXE9BCCwG4F5iJ5xV4KrTg41Wb/11luzs0Q0+dP/K8RHq9p+UgMfRl6WtqIwJX2XlwQh1sfwfB2bZCulsTb9a2IZSyVtbQvPTTHRoxAvf3O63y+bgL7//e/PNqTLA5KXAMFCoOQ58jPElZ1ZVFf0VLWP+OgTCrwqe3rqZm8z2xgD7amp4+kxwSNhLa+JbOV7HIsePdMY17Y3x8LV8jycRYkMbrjhhlFIXJ1Fikn37NV9TBPeVpcY10Ng8QggehbPZrQYAq0jMA/RYyvRvrehCpiiyaG/Ku/vS7DN+wrr0oQ0loUqT7wUbfyXiNIn76DUcJJpk2J/MuxPqmPprP2Jq+3NsPA5X1SpHSaANDndc8893dvf/vZs87kyvanfYZprX8z5ZUnwSBiFB8aGyQRi9pqWfWIpq2MZ9CxbXNVQQj+8zTx0Rx55pLvjjjsycSzxUrb3LM+7Y6FsZZv+xXEa3PIyyvl2i+3ZCbMbWkIF66e8bHlj3squs5+pyu++7BpETxkhvofA4hNA9Cy+DekBBOZOYF6ip2oIjH+gY1FoUTh5jK3c6xorT/+thAKaKEsY2Kp8OGEO9y7Y/f49/mRPHib7mPgKBYOJGV0XZkazECR9Z6IwL4uaX45lmJPo2bx5czaRludIIuauu+5aE85mHELvkjGzlNjh4IwJn2naR2F2mnRP+5ye0DNRJpqUhELn+yjsrmhvi/jliYhpc/NTVsfsqKQF+lhCDYUzxhJshPcaG/095jWt+rtu8sGH6GmSJmVBoJ0EED3ttAutgsBCEZiX6LEJoYXQ+Cl6FwogjYUABDICeZ7RaeNB9EybMOVDYP4EED3ztwEtgMDCE5in6Fl4eHQAAhCYOwFEz9xNQAMgMHUCiJ6pI6YCCHSfAKKn+zamhxDoMgFET5etS98g8DMCiB5GAgQgMDEBRM/ECCkAAhCYIwFEzxzhUzUEZkQA0TMj0FQDgS4TQPR02br0DQLdJ4Do6b6N6SEEED2MAQhAYGICiJ6JEVIABCAwRwKInjnCp2oIzIgAomdGoKkGAl0mgOjpsnXpGwS6TwDR030b00MIIHoYAxCAwMQEED0TI6QACEBgjgQQPXOET9UQmBEBRM+MQFMNBLpMANHTZevSNwh0nwCip/s2pocQQPQwBiAAgYkJ+KJn4sIoAAIQgMCMCTz77LNu165dLkmSdywvL7804+qpDgIQmAEBRM8MIFMFBLpOwERP1/tJ/yAAgW4TQPR02770rt8EED39tj+9h0AjBCR6BoMBz5NGaFJIjECapn+qvydJ8psQgsAUCTyGp2eKdCkaAnMkwCRljvCpGgIQgAAEqhFYWlpKdeXKygrvrWrIuAoCEIAABDwCvDwYDhCAAAQg0HoCiJ7Wm4gGQgACEGg1AURPq81D4yAAAQhAQAQQPYwDCEAAAhCYhACiZxJ63AsBCEAAAjMhgOiZCWYqgQAEINBZAoiezpqWjkEAAhDoDgFET3dsSU8gAAEIzIMAomce1KkTAhCAAARqEUD01MLFxRCAAAQgEBBA9DAkIAABCECg9QQQPa03EQ2EAAQg0GoCiJ5Wm4fGQQACEICACCB6GAcQgAAEIDAJAUTPJPS4FwIQgAAEZkIA0TMTzFQCAQhAoLMEED2dNS0dgwAEINAdAoie7tiSnkAAAhCYBwFEzzyoUycEIAABCNQigOiphYuLIQABCEAgIIDoYUhAAAIQgEDrCSB6Wm8iGggBCECg1QQQPa02D42DAAQgAAERQPQwDiAAAQhAYBICiJ5J6HEvBCAAAQjMhACiZyaYqQQCEIBAZwkgejprWjoGAQhAoDsEED3dsSU9gQAEIDAPAoieeVCnTghAAAIQqEUA0VMLFxdDAAIQgEBAANHDkIAABCAAgdYTQPS03kQ0EAIQgECrCSB6Wm0eGgcBCEAAAiKA6GEcQAACEIDAJAQQPZPQ414IQAACEJgJAUTPTDBTCQQgAIHOEkD0dNa0dAwCEIBAdwggerpjS3oCAQhAYB4EED3zoE6dEIAABCBQiwCipxYuLoYABCAAgYAAoochAQEIQAACrSeA6Gm9iWggBCAAgVYTQPS02jw0DgIQgAAERADRwziAAAQgAIFJCCB6JqHHvRCAAAQgMBMCiJ6ZYKYSCEAAAp0lgOjprGnpGAQgAIHuEED0dMeW9AQCEIDAPAggeuZBnTohAAEIQKAWAURPLVxcDAEIQAACAQFED0MCAhCAAARaTwDR03oT0UAIQAACrSaA6Gm1eWgcBCAAAQiIAKKHcQABCEAAApMQQPRMQo97IQABCEBgJgQQPTPBTCUQgAAEOksA0dNZ09IxCEAAAt0hgOjpji3pCQQgAIF5EED0zIM6dUIAAhCAQC0CiJ5auLgYAhCAAAQCAogehgQEIAABCLSeAKKn9SaigRCAAARaTQDR02rz0BFp1ZYAACAASURBVDgIQAACEBABRA/jAAIQgAAEJiGA6JmEHvdCAAIQgMBMCCB6ZoKZSiAAAQh0lgCip7OmpWMQgAAEukMA0dMdW9ITCEAAAvMggOiZB3XqhAAEIACBWgQQPbVwcTEEIAABCAQEED0MCQhAAAIQaD0BRE/rTUQDIQABCLSaAKKn1eahcRCAAAQgIAKIHsYBBCAAAQhMQgDRMwk97oUABCAAgZkQQPTMBDOVQAACEOgsAURPZ01LxyAAAQh0hwCipzu2pCcQgAAE5kEA0TMP6tQJAQhAAAK1CCB6auHiYghAAAIQCAggehgSEIAABCDQegKIntabiAZCAAIQaDUBRE+rzUPjIFCfwNLS0uFpmn56MBh8dnl5+U2VsLS09AfOub9YWVl5Yf369V8YDof37dy58yF9t27duhOTJHkwVlOapu9NkuTdulffW7nD4fC42D26XuWqTOfcv9A9SZLcuFrvnsPh8Br7t1/funXrtujfO3fuvKWsx6vt/3aVa8XCOXdfmqZbq1xfVjffz48Aomd+7KkZAhCAQBcIIHq6YEX6AAGPgC96nHOXpml6cR6gNE1/R2Jg/fr1e+pa59w1unY4HF4/GAzOX15e/r4JplD0OOcOHQwGf+mc+6xzbutwONzknHvRRM9gMHhfmqa3pWl6zWAw+JjKWr9+/f7D4fC2JEk+KyFk7aopevZP0/Qe9cuEm98/1aHvnXO/5pz7rnPufaorIu4eS5LkdLWLAdR+Aoie9tuIFkIAAhBoMwFET5utQ9sgMAaBup4eVTGm6Mk8OYPB4O9WhdI/cc79B1/0LC8v/17YhVXvy4dWVlY+XyZ6JIaSJPl3FTFkAidJkld90ebVcaKEmNq0Kr5Gwq5i+Vw2RwKInjnCp2oIQAACHSCA6OmAEekCBEy4DIfDbUmSfMSIpGl6U5IkG51z7wgpJUly5aqHZs09/nVpmn5lMBh8Tx4b/d0PbzNPz3A43DoYDBQyt2EwGLwz5lkyj1KepfI8PVU9QBJtFjon0eN5elSliaGPDYfDLCwO0bN4vxlEz+LZjBZDAAIQaBMBRE+brEFbINAAgVWhcPJgMDg7TdN3hPt7VEXobQlC4iQgSsPbyvb0mFdlVZCNQs4ktkIPUNk+HX1fEKa3JkwtFDSrgmibxJvVa3+TQCwTZA2YhCIaIIDoaQAiRUAAAhDoMQFET4+NT9e7R8Am8865f+qcW3bO3ZIkyV15nh5PBMhTU+gFiYXNSWDYnh5LmiCqvvAK/j4KMTP6XpsVKne2f32RhfKSFODF6d64XhXqqf5/ZWWF91Y3TUyvIAABCEyVAC+PqeKlcAjMlsCqELg2TdPhYDC4dTgcKsnAsp/JLfT0aIN/6JXxPT1+AgDziuTttbHsbUp+kKbpEZYMwSiEdZkXaLW+7ymRQpXEAtYmq8+nHCQy0FffTZJETK4PrYGXZ7bjc5La8PRMQo97IQABCEAA0cMYgECHCCgMzDn3n4fD4a9K6Ci8TSmbyzw9IYKYVyeGKebpMU9LkiTPpWm6w8+w5ouedevWKa32vx8OhxJH75OnSXVYaumIeCm11Oo+pWvCRAb+nh/LGhem7i4tnAvmSgDRM1f8VA4BCEBg4QkgehbehHQAAj8jsJqB7TfSNH02to9n9eycQ2Pn1ZTsmRkh9lJcR/fYSHToDCAvXfWa84K883t+yTn3TaW8thTWeVnXQvuWha/lfR+m8rZwPsbPYhBA9CyGnWglBCAAgbYSQPS01TK0CwJjEvAm9xImf7p6Xk20tLzwrqqeHr9Q38vkHUgaPQjVF08qw/YWKWxOGeBiqa6trqqixzl3c5Ikyjr3DkueYGFxsWQKY+LmthkRQPTMCDTVQAACEOgoAURPRw1Lt/pLICZYVif7SlH9l2ma7op5e3xiZaJH3ydJ8jGF0iVJ8p9++tOfblYSgtUDTkciZrWc0eGkfgrq1fCyt/vJC7ykBt/Ma2OR6Amysind9igxgrcPabtz7jT28yzWbwTRs1j2orUQgAAE2kYA0dM2i9AeCExIwASLn7nN92z4SQjSND3XOfc/+Wf7lFWvpADD4fAAeVJW9+IonO254XD43zvn5Kn5bJjJLfTerIa5nRPL1pYnfPx2F3lqQlHkJT34HV9IWXmInzKLt+N7RE877EArIAABCCwqAUTPolqOdkMAAhDoEQFET4+MTVchAAEITIEAomcKUCkSAhCAAASaJYDoaZYnpUEAAhDoGwFET98sTn8hAAEILCABRM8CGo0mQwACEGgRAURPi4xBUyAAAQhAIE4A0cPIgAAEIACBSQggeiahx70QgAAEIDATAoiemWCmEghAAAKdJYDo6axp6RgEIACB7hBA9HTHlvQEAhCAwDwIIHrmQZ06IQABCECgFgFETy1cXAwBCEAAAgEBRA9DAgIQgAAEWk8A0dN6E9FACEAAAq0mgOhptXloHAQgAAEIiACih3EAAQhAAAKTEED0TEKPeyEAAQhAYCYEED0zwUwlEIAABDpLANHTWdPSMQhAAALdIYDo6Y4t6QkEIACBeRBA9MyDOnVCAAIQgEAtAoieWri4GAIQgAAEAgKIHoYEBCAAAQi0ngCip/UmooEQgAAEWk0A0dNq89A4CEAAAhAQAUQP4wACEIAABCYhgOiZhB73QgACEIDATAggemaCmUogAAEIdJYAoqezpqVjEIAABLpDANHTHVvSEwhAAALzIIDomQd16oQABCAAgVoEED21cHExBCAAAQgEBBA9DAkINExgaWnpMufcHzZcLMVBAAIQgAAE3HA4POnJJ598EBQQgEA9Aoieery4GgKlBBA9pYi4AAIQgAAExiSA6BkTHLf1ngCip/dDAABNE/BEzx+urKxc3nT5lAcBCEAAAv0jsG7dugeSJHkvoqd/tqfHzRBA9DTDkVIgMCKA6GEwQAACEIBA0wQQPU0Tpby+EUD09M3i9HfqBBA9U0dMBRCAAAR6RwDR0zuT0+GGCSB6GgZKcRBA9DAGIAABCECgaQKInqaJUl7fCCB6+mZx+jt1AoieqSOmAghAAAK9I4Do6Z3J6XDDBBA9DQOlOAggehgDEIAABCDQNAFET9NEKa9vBBA9fbM4/Z06AUTP1BFTAQQgAIHeEUD09M7kdLhhAoiehoFSHAQQPYwBCEAAAhBomgCip2milNc3Aoievlmc/k6dAKJn6oipAAIQgEDvCCB6emdyOtwwAURPw0ApDgKIHsYABCAAAQg0TQDR0zRRyusbAURP3yxOf6dOANEzdcRUAAEIQKB3BBA9vTM5HW6YAKKnYaAUBwFED2MAAhCAAASaJoDoaZoo5fWNAKKnbxanv1MngOiZOmIqgAAEINA7Aoie3pmcDjdMANHTMFCKgwCihzEAAQhAAAJNE0D0NE2U8vpGANHTN4vT36kTQPRMHTEVQAACEOgdAURP70xOhxsmgOhpGCjFQQDRwxiAAAQgAIGmCSB6miZKeX0jgOjpm8Xp79QJIHqmjpgKIAABCPSOAKKndyanww0TQPQ0DJTiIIDoYQxAAAIQgEDTBBA9TROlvL4RQPT0zeL0d+oEED1TR0wFEIAABHpHYBLRs379+i8Mh8P7du7c+ZDALS0tHe6c+9DKysrn9d9pmn56MBh8dnl5+c3169fvORwOtyVJ8pEQcpqmX3HOXZckySm6NyzXv37dunVb9O+dO3feUtVYq225ZjAYfGx5efn7Ve5TPYPB4J3Ly8u/V+V663+appXrUT/TNH1vkiSnV21X1bb4nEJbWBlFnKvWw3XOIXoYBRBomACip2GgFAcBCEAAAq4J0ZMkyX9xzt3nnHtHDtLHbGK/bt26E51zh0q0hBNzE0x5k/FV4XRNkiQ3rqysvFDHfCpT1xeJmLDesn/H6l/t08mDweBsib3wGn2fJMm/09+TJLlS7YkJwjRNf6eOsIvV44vDmFhE9NQZQfnXInqa4UgpEBgRQPQwGCAAAQhAoGkCTYieKp4ea3dd0bPqPSoSVFnRJiD036selIursPLFRejdWb9+/f7D4fD6wWBwvnNOAuZS59w18srouzRN73HO/VqVeqx9OeJDXrCRmBvHm1Umevy+mFcJ0VPFcuXXIHrKGXEFBGoRQPTUwsXFEIAABCBQgcA4okfCJUmSB73iH0vT9MVY6Jpz7rvOufelafrfBvesaV2SJOenabp3GN6WF5rl3+yH1envS0tLf+Cc+4syb1AoLorC4CLheiNBVBaaJl6DweB98ur4nh4Ta2ma3uaHxU1D9KiuSH8rcaowjHp9CaKn1+an89MggOiZBlXKhAAEINBvAuOIHhEzT0eaphfL05PnNQgFiH9dlfC2cUTPJBYtCK3T/qVvhyFnZZ6oMEwtFB6rAvI2CUMTaZ6oHIUF1u1TmXCaJFSwblu6fj2ip+sWpn8zJ4DomTlyKoQABCDQeQLjih5vYr49TdMvyJMhARQBlnl6NKEPPSl5E3NfeJSJCqvPwseqXm/3KYmCv/8mJrJioWFlAyMvSUGZGCkrt+r3ZfWM06eqdfftOkRP3yxOf6dOANEzdcRUAAEIQKB3BMYVPfLgpGn6gcFg8OXhcPircv445z5n+3sMpHl6kiT5rr9vRd/7E/NgM//Iw9GUp8cPMSsz8qroGnl1wn8X3W/90DWxZAZheFuapjc5534pEho4tpcnZBtrbxWuZZz4/mcEED2MBAg0TADR0zBQioMABCAAgbGyt9mEeRXff7DwtjJPTwx32Wb6qp4bP5GB6pEnwzn3WefcVmVRqyl6tF/ntiRJPpum6T9zzu2WjS0ULxWGku1tUnlrUm6HbWtCkFTw9ETD9Sr0g0sCAogehgQEGiaA6GkYKMVBAAIQgMBYomfdunXHJknyoyRJPuaf07MqNvb0s5z5iKsKGOfcxJ6eUEhEki+oaaPQu3AoeG3dVeccnTKxURbSp/Tfdc76yRvCfj3hvqEm9gzx0/mvBBA9jAYINEwA0dMwUIqDAAQgAIGxRI9hMy+Nzt2xs2dykOaGalXx9PiHnMbKD7O3eaFyald28GcdT48JnjRN/+8kSf67NE23Vj0zp6ro0cGnq56xTHithv/p8NZ3+0kNYv31Qui+mdeuwBM1Ene+AFJGPefcOXlnCvHzqEYA0VONE1dBoDIBRE9lVFwIAQhAAAIVCYy7p0fFRw7v1Hkzmrg/l6bpETrfpiydcxXRU3LwadZTP7zNOyBUqbQvtJTZljY6D02ed8cERBhCFyunSPT43qY0Td9r+5+8M38OWBVaaZF3qSwJgYmiwWDwPTuMNSYEzYb6/6JDWysOpd5ehujprenp+LQIIHqmRZZyIQABCPSXQBOix8vcNvIoBId3Snx8PkmSr9UgnZWl6+t4elYPPx15LyqE1I3aFmZyC9uaFxYW9DU3ZE7l5SRvGHmkVoWIHXwqMZd5qvy21PFa6T7Pc7Wbx4rU1TVGZM6liJ7JGVICBNYQQPQwICAAAQhAoGkCk4iepttCeRBYRAKInkW0Gm1uNQFET6vNQ+MgAAEILCQBRM9Cmo1Gt4gAoqdFxqAp3SCA6OmGHekFBCAAgTYRQPS0yRq0ZREJIHoW0Wq0udUEED2tNg+NgwAEILCQBBA9C2k2Gt0iAoieFhmDpnSDAKKnG3akFxCAAATaRKANokcZ3HIONlUSg9+xtMyTHtpZdKCon5lNm/vzzhoy23nX/K/D4fDf+pnSfPuuZlrLDjpdWVl5ocj2eUkFJu13m8ZbF9uC6OmiVenTXAkgeuaKn8ohAAEIdJJAG0SPJyT2d8591jm3dXl5+U393U/PnKbpLxdlcqsiDvxrnHNKsX29n1rbMrFJhFlK6ZjhQ2FkqbcHg8G3VtN2f6TqgDHBpbpX+/+fh8PhU1Z/2K+yNN9V6+W6ZgggeprhSCkQGBFA9DAYIAABCECgaQJtEj2xM27yRM9wONxUciCqj2qURrpI9PgHd8orUyHd9W7m8D1TddNBr6bbPnQwGNy56mnKvEhJkqwRUH4dTY8HyqtPANFTnxl3QKCQAKKHAQIBCEAAAk0TaIvo8Q7PHE3w5QFxzl1j3phpenqGw+ERzrnR+T5lnKsIGjszyDn3/yRJcm6sTP9soFUPzrcVzmcCSP/tCbX/6Jz7FQ4SLbPObL9H9MyWN7X1gACipwdGposQgAAEZkygLaInPFTUDuDMEz0KTUvT9B7n3K+VIfP365SFt1lZS0tLf+Cc+4uifThF15Tt5fEODP2Ywti8sLqbbQ9T1T1IZf3n++kSQPRMly+l95AAoqeHRqfLEIAABKZMoA2iJ+Y18fbIPNeEpyfmSQrQZiFwSZJ8V3tynHPfXPW4bImF0a16odxwOLwvtvdnNTnDe5MkOX15efn7fl2rYXQPpmn6XrvX+9tNSZJsTNN0x2AwOFt7m6okVpjyMKH4AgKIHoYHBBomgOhpGCjFQQACEICAa4PokUdjMBi808K2Vr0x1wwGg4/JRBHRc6n+Fu51KTKn7YMp8vSE3he/PH9vkYmY2B4k3bPqtbrKOfd99cEXPTEPkIm+1fqeGAwGf2kJHVb7v83vqx8SxxCePwFEz/xtQAs6RgDR0zGD0h0IQAACLSAwb9HjezE00bfU1SZSqmZvs3C4NE3/zsLSzLtjXhvhzhM92tMj7415Zvw9NbovR/ScOBgM3ufvsfH6c+twOLwkSZLnnHP/psjUSZJc65x7dDgcvlXXeaIn28+UJMmh1q4qGepaMKx61QRET6/MTWdnQQDRMwvK1AEBCECgXwTmLXpC2qvek5O90K79y8LbFEqmciQ+bG/M6l6fUdY2q8fEkV0bpqz2PDVrkhrERE/4typle2mpR2m5vbZt8UXPcDj8J0mSvOyce7+/dwlPT7t+o4iedtmD1nSAAKKnA0akCxCAAARaRqBNoidMGR2iCr0ctg/G9teYx8U8PLEDQ/0zbgpC1kaiy9oQu3bVA/SF4XBoGdcy0aK9QAXX73YWUZ7o0XlF4VlCeHpa9gNyziF62mcTWrTgBBA9C25Amg8BCECghQTaInpWN/5vUjKBvIxp3oQ/29NjosY8LEoqkCTJg5atzUSRsCtczjn3op+W2hcmzrk3lcAgJpRWxc3+Qba4zIu0atL7BoPBv/rpT3+62Tmn7GtZNraYF6mqp8fqSpLkN9M0/Qyenhb+eFabhOhpr21o2YISQPQsqOFoNgQgAIEWE2iD6AnTVfu4wqxrsYM5LbWzn5o6RJ6TIc6Eye/rEFATLJ53Z08JodUkAo/FMrHpWi/z2ldiYXlKZOCnn85rpyVGkDhLkuS21Wxyr/riCU9P+35MiJ722YQWLTgBRM+CG5DmQwACEGghgTaInhZioUkQqEwA0VMZFRdCoBoBRE81TlwFAQhAAALVCSB6qrPiSgjECCB6GBcQaJgAoqdhoBQHAQhAAAKtOKcHM0BgkQkgehbZerS9lQQQPa00C42CAAQgsNAE8PQstPlofAsIIHpaYASa0C0CiJ5u2ZPeQAACEGgDAURPG6xAGxaZAKJnka1H21tJANHTSrPQKAhAAAILTQDRs9Dmo/EtIIDoaYERaEK3CCB6umVPegMBCECgDQQQPW2wAm1YZAKInkW2Hm1vJQFETyvNQqMgAAEILDQBRM9Cm4/Gt4AAoqcFRqAJ3SKA6OmWPekNBCAAgVkTWLdu3b9OkuTDQb2HOuf2cs79n865N1a/+8OVlZW/mHX7qA8Ci0gA0bOIVqPNrSaA6Gm1eWgcBCAAgdYTWLdu3eeTJPn9Cg19fmVl5YgK13EJBHpPANHT+yEAgEkIrFu37kTn3Jl+GWmaHj8YDI4fDoePJ0nyuL4bDAb/11vf+tbrH3zwwf9vkvq4FwIQgAAEuk/g2GOP1TvksbKepmm6defOnZeVXcf3EICAc4geRgEEJiCwtLR0tnPu5opFnLOysrKt4rVcBgEIQAACPSawtLS0wzl3QhGCJEmOWl5efqbHmOg6BCoTQPRURsWFENidwPr16/dP0/S7zrk9i/ikafr6z/3cz2144okndsIRAhCAAAQgUEZgaWnpIufcVUXXraysMI8rA8n3EFglwI+FoQCBCQmsW7fuK0mS/MuSYu5fWVk5bcKquB0CEIAABHpCYGlp6XDn3PMF3b17ZWXlf+4JDroJgYkJIHomRkgBfSewtLT0L5xzd5Zw+DcrKyv/uu+s6D8EIAABCFQnsLS0dI9z7jdidyRJsnl5efkr1UvjSgj0mwCip9/2p/cNEPjwhz/8cy+++OLLzrkD8opLkuRDy8vLX22gOoqAAAQgAIGeEFhaWjrHOfe/xbr7j//4j/s+88wzP+gJCroJgYkJIHomRkgBEHBuaWnpj51z/0sOi/+4srKiMAU+EIAABCAAgcoEjjvuuLf/9Kc/VYibzufx52x/s7Ky8s7KBXEhBCBA9jbGAASaILB+/fpT0jS9P6esO1ZWVs5qoh7KgAAEIACBfhFYWlr6E+fcmndIkiRfWF5ernKOT79g0VsIFBDA08PwgEBDBNavX/9/pGkaW3n75MrKSjQ8oaGqKQYCEIAABDpKYN26df8ySZI1e3fSND1x586dD3e0y3QLAlMhgOiZClYK7SOBpaUlpRZVilH/8+Nf/MVfPOiv//qvX+8jE/oMAQhAAAKTETjmmGPeNhgMnnLOHWwlkap6Mqbc3U8CiJ5+2p1eT4HAMcccc9xgMHg8KPp/X1lZ+fUpVEeREIAABCDQEwJLS0tfdM79q9XuPrqysvLPetJ1ugmBxgggehpDSUEQyBIaPOGcW28skiS5bHl5eStsIAABCEAAAuMSWFpa+ufOub/U/Wma3rBz587zxy2L+yDQVwKInr5ann5PhcD69et/L03Tf+sV/j+urKy8MJXKKBQCEIAABHpB4L3vfe9/83d/93c/VBa34XC4+cknn+R8nl5Ynk42SQDR0yRNyuo9gfXr1x+apul/WgXxw5WVlX16DwUAEGgJgaWlpRtb0hSaAYHaBNI0/XiSJHs75/7COfe3tQvgBgi0gECapnft3LnzoXk0BdEzD+rU2WkC69evfzFN0/8hTdPHd+7c+Wud7iydg8ACEVhaWvp/nXO/sEBNpqkQ2I1AmqYuSZi+MTQWk0Capu9F9Hi2U3rGxTQlrYaA08tIGdzWOeceTtNUh5bygcBCEti5c+e/X8iG5zTaRM/nPve5LnWLvvSIwN/8zd+4ww47rEc9pqtdIfDNb37TLS8va08aosc36tLS0p865z7cFUPTj34RYBWuX/buam+TJLl2eXn5M13qn4meRx991P38z/98l7pGX3pC4B/+4R/cL/wCzsqemLtT3TznnHMQPTGLmug57bTTOmVwOtMfAk8++aQ75phj+tNhetopAtu3b5fHEtHTKavSGQhAAALzI4DoyQ9ByDw9V155pduwYcP8LETNEBiTwDe+8Q3G7pjsuG2+BO644w533XXXIXrmawZqhwAEINApAogeRE+nBjSdgQAEFp8AomfxbUgPIAABCLSNAKIH0dO2MUl7IACBnhNA9PR8ANB9CEAAAlMggOhB9ExhWFEkBCAAgfEJIHrGZ8edEIAABCAQJ4DoQfTw24AABCDQKgKInlaZg8ZAAAIQ6AQBRA+ipxMDmU5AAALdIYDo6Y4t6QkEIACBthBA9CB62jIWaQcEIACBjACih4EAAQhAAAJNE0D0IHqaHlOUBwEIQGAiAoieifBxMwQgAAEIRAggehA9/DAgAAEItIoAoqdV5qAxEIAABDpBANGD6OnEQKYTEIBAdwggerpjS3oCAQhAoC0EED2InraMRdoBAQhAICOA6GEgQAACEIBA0wQQPYiepscU5UEAAhCYiACiZyJ83AwBCEAAAhECiB5EDz8MCEAAAq0igOhplTloDAQgAIFOEED0IHo6MZDpBAQg0B0CiJ7u2JKeQAACEGgLAUQPoqctY5F2QAACEMgIIHoYCBCAAAQg0DQBRA+ip+kxRXkQgAAEJiKA6JkIHzdDAAIQgECEAKIH0cMPAwIQgECrCCB6WmUOGgMBCECgEwQQPYieTgxkOgEBCHSHAKKnO7akJxCAAATaQgDRg+hpy1ikHRCAAAQyAogeBgIEIAABCDRNANGD6Gl6TFEeBCAAgYkIIHomwsfNEIAABCAQIYDoQfTww4AABCDQKgKInlaZg8ZAAAIQ6AQBRA+ipxMDmU5AAALdIYDo6Y4t6QkEIACBthBA9CB62jIWaQcEIACBjACih4HQZwI//OEP3dVXX+0uuugi97a3va0SiuXlZXfZZZe5G2+80R1yyCHRe/LK1d8vvfRSd8EFF+x279e+9jW3devW0jacdtpp7pJLLnFvectbnNqiyWXZ58ADDxy1N69tP/nJT9y2bdvcWWedVZlFWb18318CiB5ET39HPz2HAARaSQDR00qz0KgZESgTPVVFhZpbRVjoOpV59913j4SLdVWiR58PfOADub1Xe2+//XZ39tlnj0TPI4884j796U/n3iMxc91117lNmzZlQivs83e+8x135513unPPPTcru4roKeM2I/NRTYsJIHoQPS0ent1smlbiTjjhBLd+/fpKHdSD/Pzzz3dnnHFG4YsnfImocL2wHn/88d1eZLGK67arUuO5CAJjEED0jAGNWxaWgJ69t956a2n7P/7xj2dCQgKlTFSoMHsnfOhDH8qEw/bt20d1yDOz9957u7vuuitar3lu7r///pl5evSeO+igg7L3lerV59RTT416euoIP5Vz8803V37nlhqCCxaWAKIH0bOwg3dRG14kLkzgPPvss5W6p5AEW4HTS+C2227L7tuxY0fu/bbyp/+/4oor1rwIYzf5dSCWKpmFiyYkgOiZECC3LxSB8J0Qek7UGV/o+P+teyUQLKzN3iESDwqPu+mmm3K9KVUWunxPT+hJUTtefvnl3RbjYqIstihnRjIvk/6txb2/XDShSwAAIABJREFU/du/dY899ljuuynvnYSnZ6GG/Vwai+hB9Mxl4PWl0qqrUe9617vc9ddfn2GpGsvtv4z0QpGA0Qujqgep6CVk9glfeFqJqyrIbFWyL7amn80RQPQ0x5KS2k8gFB8W2qU9NtojE4oee97Lc2MeDL1rbrjhhuw9on1AKkNeoaOPPnrk6Q9FQVXR89prr7mHHnqo8Nlv7zDVbaLn9NNPz9rwyiuvRI1g7wi9Z1THiy++mAk11fXSSy9l9+bt6fEZlFnY329Udi3fd5sAogfR0+0RPufexVa8brnlFnfSSSeNNoz6LyJf9OgFoB+ov6rlr+o9/fTTWe/k6fE3sepvRS8ae0lWfWng6ZnzIOph9YieHhq9x10OxYclD/BDsvJC2uw5bs/9iy++ODcU2t41hx56qPvRj36UES8LtZ7E0yPRo305Em/6+Ht4Qm/V4Ycf7h544IHs3fWlL31p5J2qk8gAT0+Pf0QVu47oQfRUHCpcNg6B8EUV866ED2p74dkqmIUrnHfeeZkXx15yTz31VBbSsM8++2R7frRSVpS5J2x/XU+P7q+aycffPDsON+7pNwFET7/t37fe+6JHHhqJgwsvvDDLxmZ7OWPvEnn37T3gZ2yLiSZ/kcsWsqp6emxxrW54W1VPj8qvm72t6j4oG0tEHvTtVxXvL6IH0cMvYYoEwheVhRxoc6ZltilandLLS+k69YC/55573K5du3ZLSqA69EJ7+OGHs9UxPD1TNChFz4QAomcmmKmkJQRMfKg5ftppEyoHHHBA5pGx5AV1J/wf/ehHs3fEKaeckmVos1TYYdRBDEfVhS7da2IqlvGtbJHNfw9alEOeeWJJCSwkUOLvsMMOG4V5i5W9E1tibpoxRwKIHkTPHIdf96v2RY+/70YvLxMw+nu4j8deNGFoWUw0iWLZCyVGuso9/sur6v4kq8uP8e6+pelhkwQQPU3SpKy2EzARE9t7Ys9pTeZfffXVNWmgizw1sSQDvrDQXiE/3CyPkdWhkDhLS62FOD8sTm3U/+xMId2ztLTk7r333tJEOSZg6np6/Pb6WUr1dz9BD1nb2j76Z9s+RA+iZ7Yjrme1mejRGQNh2mk9qLXqdvnll2feHK2+la1whfhMWPgvMAt3iyUc8MPOJt3TYy/j4447Ltt0umXLlqx54Ybanpmc7jZAANHTAESKWBgCVcLMYnt6JhE9etfEzuXxofkLY3qvmOgxYSEPlKXatgU6u0d7TfWOs3N4/LK0d0f7WrUvVVnmFLY9juixRcB3v/vdWbP9xA9iE4uMWJhBQUOnQgDRg+iZysCi0J8RMO9I3h6XMGuNrZQVncMQS2cavpzyMsBVCWeoYju9bBSGIcGmFUg/BILY6SoEuaaIAKKH8dEnApOInqLzfcJIARMWCq1WnWXZPv0DS/WOkeg5+eST3Re+8IXs2R8LubZ7LF22xM+Xv/zl3Tw+ek8cfPDBY4seX9QoO5wSJqiuz33uc6OMdfq7JfXhvdSnX1R+XxE9iB5+CVMkUOUQudgK1yxEj14aeunY56ijjspeEPvtt98o7anaphenVtAkbsw79Pd///furW99q/vEJz4xykLnZ5DzN9VOES9Fd5QAoqejhqVbUQJ5oic8ty0M1arj6bGFKYXQbdy40a2srKwJlYs1LEywEL4fdI95WyQwJCz22muvzIujhb688DkL5/MXA+09ePbZZ2cLakVHI4RhgLa4SGpqfmBlBBA9iJ6yMcL3ExCYRPTox5n3CR/uoacn7zwde8m8/vrro9AGO/naDjm1Om0/z4knnpgJH22C/eM//uNshdBeaLaKZxmE/ANP2dMzwcDp+a2Inp4PALoPAQhAYAoEED2InikMK4o0AkWix8/AE7reZ+HpsTb6K3W+5YrSTtsKZN002YwMCFQhgOipQolrIAABCECgDgFED6KnznjhWghAAAJTJ4DomTpiKoAABCDQOwKIHkRP7wY9HYYABNpNANHTbvvQOghAAAKLSADRg+hZxHFLmyEAgQ4TQPR02LgNdC2W/EV7EC39cXg4Zl4Ir5qi/Yr66F6dRZOX+VLXxDJnlnVHbVFKfzuMuux6/zw3pXKu+qnaNktg4+/htIM9/ZTPsXqrnO0Wu29WDOrUYyHaxx57bCXbhIzMTscff3yWNa7oU3QAeVX7cl0zBBA9iJ5mRhKlQAACEGiIAKKnIZAdKsY//0vdMnHy0EMPua1bt+b21N8vaSn7w8xiJpimIXpscn3eeedl59HEPuGkuOzfeWXYOTo6t61KPXZNlZTZuraqOArrnhWDMiESnk1n2fBCURzbzypGb7zxhtuxY4dTprq8jyUZ8tNl511btG9W95SJJbVJn6qCukOPg7G7guhpmegJHz76MeogLx38mLfSsH379t16oR/e5s2b3aOPPprdW/ZQq3J+i5+z3x6q46782A9aWcb0uf7660enOcdWa2J16768AzbtwaNrlDYzPM06L1FA2UPGBy17qGy9cO18naJfomzwxBNPrOnr2L/cyI3+WIm9dMZ9IcbaWDaeyvpV9357aepcibxVNUtbWlZ3mPmu6EXurx775U76W5jm2In9Jv0Ty/MmRHUnQGWcJ/ke0TMJve7dW0UEFHl6jMi0RU+YYrrIErGDov1zc/x3VNGz3eoo8/TEno/ycik7Z5jt02+bfwZbUX9MQMyKQdXnvbVZ7TviiCOiabT9d4DNGexQVf277vPa7tHZQXnes/A5PW5/rrjiitLzlrr3RBi/R4ieOYue8JBHmwzuu+++o0O1Yk300wHrx/Lyyy9nk0Hfre8/KMsmmVVET6yMoixjZQ/LWErjPBGVt4Kjv2/bts2dddZZTit+FqLgnxxtZwXoIDWdS2OT5pi4qiN6ZJeyyWTs0M6YUAsPkRvnJz2p6LH+lIViTCJ0q0ys67w0VV4euzq2jNmx6EVX97cQs+e0xo5+k7fddltWpVYl8z42sfHTjBeNO+Psr7hXEfvjjGVEzzjUunuP/17zs16qx1rE0Psvdq6LLXDoHZF3iKfeQ5r4H3300WvC21R2Xur/kLTVYwd46qyZosWFvIWJvGdvGK5X5xlpbXvuuefcI488MvIK2LzB+mLvxbBtYd15zzILLSwTX3b/pAyqHAcRvm8keiQS/IViiSGNH2Mfa5d/EKqOeMjzLPpzmqKQSmvXpJ4elVOHQ3efENV7huiZo+jJ+3GdcMIJIzd4kafHmj5t0RN7wBa9TGKTUHsAnHrqqYWuWP8HHL7cYi8anfosgSO3sz7y6Kiuvffe2+nFo0/eAWn6LhR7eRPlOi8ZlWshFbEXxjgvlaKfdJWHq3+/bKdQC51cXXQAnH+PHyKS510L2+ifCVR05pDdZy8M/bsort6vp+iFXPXl678YTRTnxdWP81uIraQW2XOSsTPOfoAqIjbkXCd2vvrr6L9eiegZh1o374mNz7xQN1+Eh79//9kuQeK/F2LhbbHnUOyZUvc5k2elonePf0C07o9dW9a2mOj5+te/njXH90aM837K84jXHZF1GFjZRYuroagoEzQmVG3uoWex5mN6f9U9+LQsFDBsS9X3qvrtt6XO4l5de3TxekTPHEWPP8EPXZuaAGrlJBa6VnUyKUHw5ptv7hbeViYmDInVs88++6yZhNrD9eSTT848Hf4DM29FSn255JJL1qx+6VqtwKk9Eiv+Q+Dpp58erbyE3jDfZKGnR6dBi92XvvSlLO42XOkuOzCz6KFbdSLu2zV8IOshevrpp68Ji6uyklbl4VPH01PnQRmuJNV9ycdWoorEpj/ZePHFF7MXji+kNV602qb/1zjRJxbyViUkpMwb2cRvQaJnVmNHrHWauR/rnRd/buEoVV+2vg3qjJ8qYze8BtEzDrVu3hMba/YMkHdGi1sa80WeHk1mfaGeJ/T9usYRPUVegJh1wgXC2Lsg9vxsSvTIwxE+n2Kip2jPlPXLnidVn6l237gMika7LU6FSQqqLPCE5SpE7bDDDnMSiJrrtM3TM85CVzefFNV6heiZo+gJQ2Tsh2obHvNC0sIJo39dlfC2WLmx8Db7W0z03HTTTZl35ROf+EQmWPxVF5uElnkg8g7k1Evsq1/9qvvgBz+YFevHrFbd1xTu6fHjc+2hHHMtl8XulvWp7AHuT0qNmwneMkFW9pMua1tspaqugFEbqogJv63hSzv24glf4mYjGyPhb8Me9E899VSlCX7IrmjVrmjVMmyn/l3lt2DctOE0T4RMOnY0MVEZdQ+MrTIRiE3GykJmy8Zr0feInknodeve8Jlvv8Hvfe977rd+67cyMZMkyW57K/1nm35z/v6KcMz7z07/mRMuVpR5U/JC2qr+VlS+79UJ/22WHVf0hB53e+b4C4uxJA95C0v+e9/C2/JGX9MM8uoxW2oeES6GxRZ4tDis5034XPbnJ2Vem1hbyu4Jx2DVxWiry29fVbbdejKM1xtEz5xET57LXgaRO1UDWvG3sThkf7IeTtLzvAb+j6IJ0WN7ZuSp8cPxysKNFCOt1Rc9kMTAD0ewH73fP/3N34cjc+XVEZushpNlM3feRM8EiK1aVf1Z5SUpaMqLU6UddTw9/sszL8FB3sujyoZL34ah6ImFOhZ5DnyPoPZl7dq1azevYYzPuC+CuqJnnN+C396mxo44a1w//PDDTiJfnyKRNYmnx36HZfu/qozb2DWInnHJde++cPKo36eEvbzAmrDqk7f3pmhxo8xbae+OKiHAYT1+yLnaV+dZZElS1DeJrlhK5HHalrenx4SBcT733HOzkHHtk9X7uarnJnxnTpNBVe+0/2uQjcRUi1T+ImjMPuF72x+D4pgXru2Pg7JFSNVbtKfH6tTiqDxNlvnP9+Jb/+qMr+49Ier1CNEzJ9ETe+DKs/Lggw+6jRs3ZqvpL7zwQvYwD9Nc5mWgCQWB/2DwvQjjiJ7wpeJ7UuSJsQdzbJJvD83QkxH78arNJoaKJtd+6F3sheenjbz22muzFZ8NGzaMrJ0netTW559/3h133HFrrs/7WRljfR+G75k9/NCAM888M/OQhWGLk3p5VFfZQ7aKp8cvo24Msy+k/BVSX/T4rniJehMw+nu4qmrjJvSAVNkf5v++7r77bnfSSSet8UhW4RXaPG8vVJ3fgl/mNMZOFa9N2K8q91QNu6n3+sm/GtHTFMnFLyd8V37jG9/IQpj1/tAk1l84K1r4qTp5b8LTE75jY6v4Zd5mvTfCaIi8Z6z+XuaFKhM9VrYfMm6iR98VnUUTWyiaNoPYyC57llUJa1RCpHAxJxQ9fkII3yZlGVKr/hrF8/HHH8/mFPr4yRdCcUl4W1WqP7sO0dMS0WM/KjXnlFNOyYROnruzLONHmeqv6kYt29NjGWrCvTjm5i6bhBt6P/ONL2DCDd1+7PEPfvCDNeEKJjBCF7utCv7oRz/KvEuxVNu6V6uG73nPe7K9NuKvibL/Qq36wrQ+GbvYnpOY56MotWXVn/S4nh6f+bhCx29jOEmx/mrlUHX5aafFVawvv/zybH+XmNs+nqr9jglGP36/SmZCq6soNMImFr44Cycasd+C4uarxMQ3MXb8+hWWmrcCHkuXG9s/6NsgFJ/TzBqE6Kk6+rt/XVE4rDyZep8Vjd06wqGMZpVw4NiiTNk72a/X3jWKoFBZutcPIc9rY1nbwt9r6InJE1RVohVC0TMvBlVFj97xN9xwQ7YPLDxXR/vEwgXMuqJH7dDz8pOf/GTmKZNnSXOBUMiaV8/qM27vfve7M3P4+6U1DmJRDmUey7Ix3bfvET1zEj3hj1PehT322MMpfMcPF1PzwpUXv8lVhcWknp6iiV74wC6K7Y1NlGyCqn7bJuxwn1Deadl5/dek7qqrrho9cEKuxl/13HfffdnZOf4KT5UHvQkt/X/eKlhZuKFSk9c56yc2XMcVZOp72YvS76P+u2zyrnGmPWm26VMi0zx2eWI9DFexlduiSXVRu8OQz6oZ+kIvVPg7rCJ66vwWysbYOGMnFD15CRTqCMG8l6IvLJt+cSJ6mia62OWFv4XYRM/2pShS4tVXXy09sHGcyWLZ89KeIUceeaR75plnMuia0IZh4EXP8bxMmWUh12Vti0VO5GVa9d9JVd8vYbjsPBiUiR5b8A0XyoyNUlq//vrrLswyWze8TfZWWL7KiWWP9dup+rTwt//++7vvf//72XixPWiaVyjLqgkx/8BTGyehcFrsX/r0W4/omZPoUbWx1R/7W9nqcFE4VJ1VJet+0SQotnk7z40b1m0vAQt/81f9wzScviks9E3eGXto+AkVNJm283nCs0Js0vv+978/CxHUamAYF27tEmcJHnmOJLjkcTAxUNQ+a2vViavc5dqfFZ6NYhvxi1byQoZljwXZS3zMq6UHpeqNfcpelHnjtKgNIesqHoHYBGQc0RPbw1VF9ISM80IGJvkthMymMXbGET22b87ad9RRR2W/mf322290kG5sQ/U4z5mysWvfI3qqkurHdbHfnQS9n7nN91L7E3xNDvXJO6cnRjDP4132vAz3oJYJBr9tZWe12YS9yHNVFF5V5OkJ2+m3pew5ZQtjttg5Dwa+vYuiFUJRlBcqbeUZ67qeHj+hRd4YKGqn1V8WeUFoW/3nH6JnjqInNqnLEw2HHnroaONm2YGA40xGykRP3p4e/8cd/gBjoUJ+n22C6qeztge7nZ7s7xfyX3wym61ia5Vkzz33dG9/+9vdvffem4VPyYPiixibvFtSBL8sCR5N8iR4/P1Taqtc4BJFecyLXgj+g9hfpbN+azOu2qnMQ0V1VF2RjNUnm3zlK19xX/ziF7ORHq4WlpVdtnKWt2Lpx0RPInqKzvcJXwg23kI7hr+H2MZoebBiK6lhkoHYBuLYi6nKy2gaY6dueJutMmp1UalY9Qm9ltZOhZfaQoAWIKosCtR/Jf3sDkTPuOS6e1+V53F3e0/PILA7gdi+aDgVE0D0zFH0xCaUNkGzzG1+SJA/4ZKnZ8uWLe7CCy+sPMaL9gKViZ688Dbf3aqG+Kc/+4LB30cUTi4tTEb3W0iRTeDDa/1y7OAwiZ7NmzePzgySiLnrrrt2CxOMrVaXTU5jL1rfDmX7q/yJbehdMiFl5an/MfFTJhrCVamiARFO4k0MFq2C5q0s6l7rkx9THzIpan9oT4lP+9Tx9BRNiPLCOiS2wzOAYux8+5g4sv1e/spv3m/BXxiY9tjxD10MU837fYv93otCRcN9BdMMbUP0VH6kcyEEIAABCNQggOiZo+hR1RaHbGFVNWzHpRCAAARmTmAWK+54emZuViqEAAQg0HkCiJ45i57OjzA6CAEIQKAmAURPTWBcDgEIQAACpQQQPYie0kHCBRCAAARmSQDRM0va1AUBCECgHwQQPYiefox0egkBCCwMAUTPwpiKhkIAAhBYGAKIHkTPwgxWGgoBCPSDAKKnH3amlxCAAARmSQDRg+iZ5XijLghAAAKlBBA9pYi4AAIQgAAEahJA9CB6ag4ZLocABCAwXQKInunypXQIQAACfSSA6EH09HHc02cIQKDFBBA9LTYOTYMABCCwoAQQPYieBR26NBsCEOgqAURPVy1LvyAAAQjMjwCiB9Ezv9FHzRCAAAQiBBA9DAsIQAACEGiaAKIH0dP0mKI8CEAAAhMRQPRMhI+bIQABCEAgQgDRg+jhhwEBCECgVQQQPa0yB42BAAQg0AkCiB5ETycGMp2AAAS6QwDR0x1b0hMIQAACbSGA6EH0tGUs0g4IQAACGQFEDwMBAhCAAASaJoDoQfQ0PaYoDwIQgMBEBBA9E+HjZghAAAIQiBBA9CB6+GFAAAIQaBUBRE+rzEFjIAABCHSCAKIH0dOJgUwnIACB7hBA9HTHlvQEAhCAQFsIIHoQPW0Zi7QDAhCAQEYA0cNAgAAEIACBpgkgehA9TY8pyoMABCAwEYE+iJ5vfOMbEzHiZghAAAIQqEfg4osvdsvLyy5N0/fu3LnzoXp3N3N10kwxzZaytLT0p865D1955ZVuw4YNzRZOaRCAAAQgkEugD6IH80MAAhCAwHwIIHoC7oie+QxEaoUABCDQcdHzX7AwBCAAAQjMj0Caph/G0+PxN9Fz8MEHz88q1AwBCECgpwReeukllyTJtcvLy5/pKQK6DQEIQAACHSPQ6vC2jrGmOxCAAAQWhgCiZ2FMRUMhAAEIQKACgVaKnmOOOeawCm3nEghAAAIQmCKBJ5988m+mWDxFQwACEIAABGZGoJWiZ2a9pyIIQAACEIAABCAAAQhAoPMEED2dNzEdhAAEIAABCEAAAhCAQL8JIHr6bX96DwEIQAACEIAABCAAgc4TQPR03sR0EAIQgAAEIAABCEAAAv0mgOjpt/3pPQQgAAEIQAACEIAABDpPANHTeRPTQQhAAAIQgAAEIAABCPSbAKKn3/an9xCAAAQgAAEIQAACEOg8AURP501MByEAAQhAAAIQgAAEINBvAoieftuf3kMAAhCAAAQgAAEIQKDzBBA9nTcxHYQABCAAAQhAAAIQgEC/CSB6+m1/eg8BCEAAAhCAAAQgAIHOE0D0dN7EdBACEIAABCAAAQhAAAL9JoDo6bf96T0EIAABCEAAAhCAAAQ6TwDR03kT00EIQAACEIAABCAAAQj0mwCip9/2p/cQgAAEIAABCEAAAhDoPAFET+dNTAchAAEIQAACEIAABCDQbwKInn7bn95DAAIQgAAEIAABCECg8wQQPZ03MR2EAAQgAAEIQAACEIBAvwkgevptf3oPAQhAAAIQgAAEIACBzhNA9HTexHQQAhCAAAQgAAEIQAAC/SaA6Om3/ek9BCAAAQhAAAIQgAAEOk8A0dN5E9NBCEAAAhCAAAQgAAEI9JsAoqff9qf3EIAABCAAAQhAAAIQ6DwBRE/nTUwHIQABCEAAAhCAAAQg0G8CiJ5+25/eQwACEIAABCAAAQhAoPMEED2dNzEdhAAEIAABCEAAAhCAQL8JIHr6bX96DwEIQAACEIAABCAAgc4TQPR03sR0EAIQgAAEIAABCEAAAv0mgOjpt/3pPQQgAAEIQAACEIAABDpPANHTeRPTQQhAAAIQgAAEIAABCPSbAKKn3/an9xCAAAQgAAEIQAACEOg8AURP501MByEAAQhAAAIQgAAEINBvAoieftuf3kMAAhCAAAQgAAEIQKDzBBA9nTcxHYQABCAAAQhAAAIQgEC/CSB6+m1/eg8BCEAAAhCAAAQgAIHOE0D0dN7EdBACEIAABCAAAQhAAAL9JoDo6bf96T0EIAABCEAAAhCAAAQ6TwDR03kT00EIQAACEIAABCAAAQj0mwCip9/2p/cQgAAEIAABCEAAAhDoPAFET+dNTAchAAEIQAACEIAABCDQbwKInn7bn95DAAIQgAAEIAABCECg8wQQPZ03MR2EAAQgAAEIQAACEIBAvwkgevptf3oPAQhAAAIQgAAEIACBzhNA9HTexHQQAhCAAAQgAAEIQAAC/SaA6Om3/ek9BCAAAQhAAAIQgAAEOk8A0dN5E9NBCEAAAhCAAAQgAAEI9JsAoqff9qf3EIAABCAAAQhAAAIQ6DwBRE/nTUwHIQABCEAAAhCAAAQg0G8CiJ5+25/eQwACEIAABCAAAQhAoPMEED2dNzEdhAAEIAABCEAAAhCAQL8JIHr6bX96DwEIQAACEIAABCAAgc4TQPR03sR0EAIQgAAEIAABCEAAAv0mgOjpt/3pPQQgAAEIQAACEIAABDpPANHTeRPTQQhAAAIQgAAEIAABCPSbAKKn3/an9xCAAAQgAAEIQAACEOg8AURP501MByEAAQhAAAIQgAAEINBvAoieftuf3kMAAhCAAAQgAAEIQKDzBBA9nTcxHYQABCAAAQhAAAIQgEC/CSB6+m1/eg8BCEAAAhCAAAQgAIHOE0D0dN7EdBACEIAABCAAAQhAAAL9JoDo6bf96T0EIAABCEAAAhCAAAQ6TwDR03kT00EIQAACEIAABCAAAQj0mwCip9/2p/cQgAAEIAABCEAAAhDoPAFET+dNTAchAAEIQAACEIAABCDQbwKInn7bn95DAAIQgAAEIAABCECg8wQQPZ03MR2EAAQgAAEIQAACEIBAvwkgevptf3oPAQhAAAIQgAAEIACBzhNA9HTexHQQAhCAAAQgAAEIQAAC/SaA6Om3/ek9BCAAAQhAAAIQgAAEOk8A0dN5E9NBCEAAAhCAAAQgAAEI9JsAoqff9qf3EIAABCAAAQhAAAIQ6DwBRE/nTUwHIQABCEAAAhCAAAQg0G8CiJ5+25/eQwACEIAABCAAAQhAoPMEED2dNzEdhAAEIAABCEAAAhCAQL8JIHr6bX96DwEIQAACEIAABCAAgc4TQPR03sR0EAIQgAAEIAABCEAAAv0mgOjpt/3pPQQgAAEIQAACEIAABDpPANHTeRPTQQhAAAIQgAAEIAABCPSbAKKn3/an9xCAAAQgAAEIQAACEOg8AURP501MByEAAQhAAAIQgAAEINBvAoieftuf3kMAAhCAAAQgAAEIQKDzBBA9nTcxHYQABCAAAQhAAAIQgEC/CUxd9KTOXd5vxPQeAhCAAAQgAAEIQAACECgikDh32TQJzUL0DJ1zU69nmpAoGwIQgAAEIAABCEAAAhCYGoEdiXPvmVrpsxAjqXM/Ez2X4/CZpiEpGwIQgAAEIAABCEAAAgtH4LLMwdMh0TMcOpfg8Fm4gUiDIQABCEAAAhCAAAQgMA0CO3Y4957MwYPomQZfyoQABCAAAQhAAAIQgAAE5kwA0TNnA1A9BCAAAQhAAAIQgAAEIDBdAoie6fKldAhAAAIQgAAEIAABCEBgzgQQPXM2ANVDAAIQgAAEIAABCEAAAtMlgOiZLl9KhwAEIAABCEAAAhCAAATmTADRM2cDUD0EIAABCEAAAhCAAAQgMF0CiJ7p8qV0CEAAAhCAAAQgAAEIQGBNPCvHAAAgAElEQVTOBBA9czYA1UMAAhCAAAQgAAEIQAAC0yWA6JkuX0qHAAQgAAEIQAACEIAABOZMANEzZwNQPQQgAAEIQAACEIAABCAwXQKInunypXQIQAACEIAABCAAAQhAYM4EED1zNgDVQwACEIAABCAAAQhAAALTJYDomS5fSocABCAAAQhAAAIQgAAE5kygz6JneXnZPfLII+7Tn/60+8lPfuK2bdvmzjrrLPeWt7zFXXHFFe6AAw7Ivmvic+ONN7oTTjjBrV+/flSc6r/77rvdJZdcktVZ9NG1N9xwg7v++uvd2972tkpN+s53vuOuu+46t3Xr1lr33Hnnne6CCy6Itklliskrr7yypg0f//jHM3aXXnppdu8hhxyypp+XXXaZEwP/71bW5ZdfvoaLX/APf/hDd/7557uDDjrIbdy40Z133nm79f20006rxLASNC6CAAQgAAEIQAACEOgegT6LHl+IaHJ99dVXu4suumgkEMYRGrERonLOOeecSoNH4iFPaH3ta19zL730UvT7PDGSV+nNN98cFRoqp0j0WHnq08svv+w+8IEPrBE3JiLDesVXgkjCT5yLPmqbypZYO/DAA0diKVanyr399tvd2WefXSocKxmAiyAAAQhAAAIQgAAEukegr6InFDma7D/wwANuy5YtjRrZPBXve9/73Kuvvpp5Q+SpsfqOPvroNeJBHid5mbZv3165HaGnQ2JOH188xTxNsQqqiB7fKybBYR4s1XHrrbeuKTZPxFk/jz/++DXCyb9Z18hTtWnTpsxDhOipPCS4EAIQgAAEIAABCEDAJ9BX0VPXMzJuCJWEwMEHH5xN7M0rcfLJJ7svfOELTmFdmszLg6PwLT/0TTbyw+/CURveExMcRSM9rz9VRI/q1kd9sjZK+PghbP41eSLMF2Z+f2LC713velcmGC+++OLdujWubXgSQAACEIAABCAAAQj0hEBfRU9o3ltuucWddNJJa/acNDUEqoa3hZP3vNAt39NSdX9PrC8SGgohq/pReNqJJ56Y7bF59tlnR7cpBO3UU0913/72t92FF14YFXKq6/HHH8/23mjvlC949N+hV0d/s5C4cI9Q1fbqOok4iTETmHXu5VoIQAACEIAABCAAgY4QQPT8bHIdTuR98+btf6k6BIo8NlZGnoclLwFCbO9MWT9UlzwmRckQqnh6wn6bV0d/N49VXjhdmYfNF37iJsGiEECF6qnMvLC/oj1KiJ6qI5XrIAABCEAAAhCAQEcJIHpcFl724x//2O2///5uw4YNI0v72c8so9s4e22ee+65SokMYoIkzMBW5P2IJWPwh23Z97pWLOSJCTOthcM/5pkxcaekApYJr64nyg9zk/ftwQcfdL/0S7/k3vnOd472KMXq7ujPk25BAAIQgAAEIAABCDRBoO+ixxcCEjTyNNhE3d+PMwlriQF5Vw4//PAsnfP999+fFaeQMNuov88+++yWPc7qtKxtEhNKcnDGGWdEM69N6ukxFir/qaeeiiZ1yKvDQt+UmU33f/3rX1+T9tr3IEkEylOl/lj/n3766ay7lg1O199zzz3ujTfeyBIZKMmEhR8ieiYZjdwLAQhAAAIQgAAEekig76LH33DvC6CHHnpotAel7AydsmGjOp5//nm3Y8eO3c638e8tCj2z/TcSF36a6DqenDJPjy/yyrK95QkPa2cYbuaH+FkWNl/0haJH9S8tLbmHH354lL0tL1lDWchemX34HgIQgAAEIAABCECg4wT6LHpi+1f8wzCrHBpaNjxMHBx33HHuW9/61lieHkuEoPTPSgmdJ3wm8fSEGdasLB0GGmaVU5/zRI8Jk7CNvoiy/z7iiCN28/QoUYK8RUplrf++6aabRqLHWNfx9JDIoGyE8j0EIAABCEAAAhDoAYG+ip5wb4xtsJfJNSmX56HK3payISLBcvfdd7vNmzdn+2XqhLeZgAjPusn7e9iWMs+Orrd+K9Qs9CAVCcAwrbTCAnWg6LHHHpuFrSkM74ADDsj24fisX3/9dXfDDTdk4X7yoIXhbUcdddTocFS1zz+nB9FTNtr4HgIQgAAEIAABCEAgSqCvose8DZqoK21z7KwXf2Kfd8hm2bCyVNi67s4771yzz8XutZAwteGiiy7KPB3aX1SWNc48QLpPSRjuuOOOsuaMvrd7nnzyycJsbrrB6pH3RtnZzjnnnKwca1+eV0iMd+3a5U4//fRsf86RRx7p7rvvvlF9vsdGYsjKNS9R3vexTnJWT2XTcyEEIAABCEAAAhDoH4G+ip4+WLqKp6cPHOgjBCAAAQhAAAIQgEDPCSB6ej4A6D4EIAABCEAAAhCAAAS6TgDR03UL0z8IQAACEIAABCAAAQj0nACip+cDgO5DAAIQgAAEIAABCECg6wQQPc1ZWAkJlKnNMpMpg5kSEsQ+/sb7cfbehGmblYVNB3hu2bJlVJ3ao8QDlnLaMrW98soruZ0OEwJYMofwQFT/3J26BGOpwsP+WHIHv+wDDzwwy6x3yCGHZH/2y1GfwkQR1t/99tsvN1lD2QG0sXbk9ddnNyv7xFha8gxxCs9bsqQUsT4oMYUOpdUhsPrkJd6oY28/GUjRGVN5Zcb6V1a//zu0g4bDe9rKLfYbtXOobr/99ixlvX1svOnf4aHFsXFbloxlWr+F8Ldq556VPUPs+xNOOCHLDJl3Pplv27AP4e9Q3z/xxBOj50HRs7forDL/fDerP/Y3/zslzCn7hM+Q2GHUZdyKeBTVX5TJM3Zf2I6yYw78Msb5XZex43sIQAACpQQQPWsnz5MeRBo7F6bsXJkmRI8M7b+kYy+VmDAqexFVESh+GeFkK5ZVLa9tRZNsMVQK8bPOOsvZRDYUPUqP7Qu6KoeWNnGOT+xsopjNp20f8fEnxeGP38+KZyx1jbIFKmuguFbJNlj6UFkdi9YWX+zEJuNFdiqbHNURpX49frnz4GaZDcOzwML++s8GiR4JAC1ihNeFixPhBLzKRHlavwWNF2uPjR0JmLI2hWd7HXzwwdntvnjwny9WnlLm2/jW89xffCo6NLnoOeYvuBQdzKwyYuIstEfsmR/atO6zN/a7LBMi/tlufh/DxZHwN2rjTccSFD1z1CYT20ULLtb2sgO6H3/8cdfE+XlVnmFcAwEIdJBA30WPny56Wg/Tspd7nuixyXTshRB78aocTYwkDGKHetYVPbEJpSYN++67b3b+TkxgPPTQQ1lz9eLPm7DG/i5GWs196aWXRhO7UJCZJys8I0jXadKucnUOUihcbcKhM4DCduf9pKsIJmuHvCO+B0plzsI+qqeux8LaNm3RY1zDyV7offTHfjhBLXrcmpAqWl337w9/Y/PkpjZrnGsshp8yT0+e6AnLiXn4HnnkkVGdVby+VSaidk3Rb8Fn7z8fip6LsWeinjeamNvHnncSOfrO93Tbs+4jH/lI9Kwv+x2E3niJqI0bN7p77713NLkO22ljR55ULRgUfWzCX1f03H///WvEneqo8uyt4k1SWSZw9tlnnzWLHtYXv88xW9j5c3XemeO+B32+Zd7IDk7R6BIEINAkgT6LHj1A9dFEQmFpdR7goQ3spX/88cdnE/6yFei8kBWVa9+pTQo10svVXjznnXdedrinHzZnB4M+++yz0aFhE8QqEx1/5TRvwqrJk02+VGHepMYmB7rmrrvuirZNkwI7zFQhdCr7l3/5l7Mzh/LC8Pz+mHdI1+ogU730w5AmmwBKrIUhgLFGVfG82apl3grotO2jdocTtjPPPNPt2LEjys3nXBRyqZVbnaukTxPhbXVFT3gYbUyo+2Xaf5966qkZDwlnhZdqDNh413daCNAENfb7mSU3tSlvnIr5uJ4efxxrbNoBwPZbiE3cp/1bsDb5Is/sJdEXegjCZ48Jwzxh6y/y2NlmPgdN7K+66qrsWbxp06ZRWGzM62TsJUQVDnviiSdm/6/w4PDdkNeeJsPbJHr0Ma+RLRZUffYWzRH8BRmJnvPPP9/Zu8PEkM5Vk2dN9YfPQ9/LI17h4pxfd+iJs7PY8tpXtthU9vtpcm5EWRCAQAcJ9Fn0mDnHWbXKGwompGwV18qWJyLmfQlFg/4tb42EwFe+8pXdRI+FIelFpMm/PBu2x6VseI7j6QlfvJqI6OOvUpeJntD7Ek7sTEBoJdNe6oceemh0BdLvo19OTATYtU0fXGohIZoQ5QnlWdhH/dNkyEI+YvuabDIXroKboNEEpunwNj9kJpwA6YDaww47bLTPLPT0hKIntjrsTy6trtdee23kbfOZyHtk48vf0zIvbmWeqbqi59xzzx0dZqz+SbBedtll7vLLL1/zXPBtUra3p+w54n9f9luw74899tjsNj/kUb8f8z75/daY1ERc9+g5UyZ69KyMhSXb807ixfeAaGJ/zTXXZM9ZWwDQZFuCWF5b2xepem2PpolH648WaCSMfMEQcitaQCoLb4uJnrJnr7WxSISEoqJM0KhP4b48/U08646jJjw9eXtM64xZroUABHpMANHjsknRpJ6e2BAKJ7554V7+i6eq6LGJXLi5v2goNyF6NFGRx8T3AoSiJ4y537x5czZxMfETihVNdPU55ZRTRqJHK/axUI3Yvoy99947m+yVib+iyUCMWxj/b9dUETSzsI9NAL73ve+5ww8/PFuV/dznPpfr6TGh6oeI5Hm18sZqnUdl6P00keYn1ygTPWqrJoB++GDRJNgmyxoP6q8m/5bIw9o+L25VJmzjhreVTShDu83qt6B6vv3tb7t3vvOduwkYv83+eFPoZd49oeCyBSIJ/jB0tWyxw+r87d/+7Wx8SchI9CgkTl5DfcJFDevPhg0bMtHjLxj4oZt+6J0E2Tjhbao/9PQUPXvzknbYwof4SCD6e46qeLV95hrDX/3qV93b3/52t7KykjGfpadHbSHErc5TmGshAIE1BBA90xE9NnnRpMt/UT333HO7hZ7UFT16icoL9OKLL2aeoG9961vRvSzhUB8nvC0UHiYE/BAa1WMv/7w9Pf7KZbiqq9XWPfbYIwslsfA2/b/V7U8swomr7lWb5BnKW3UtWpEsSzJRRcyG16jMWdhHHK+99lqXJIl7//vf7/7kT/4kEz8xz5p5emIZl3y+/mbjcbKt+Sz8smzclO3p8T09thgh0SwxZwImNoGU7fWx0DZrR0w0zYtblbFW19NjtvbtWjQJzRPy4lWlfeFYL1oAiE2QfdvFRI88V/pN+5PqKp6ecE+PH/rme9h94WnPZV/06Lmza9euTADp44cJWn/0dz2v6np6quy3MaGWt6dHAj7v2ZsnenxPergAEHpltYj20Y9+NLpXyX8e1BXZYlZ2T1UBVuYtZYoHAQhAIJcAoqdZ0aMHskJtnnzyyVHoWTiR0b/9EJRQBJSFt0lY7L///u7hhx/OYtUfe+wx9+abb7ovfvGLu9k59IwUxfGH7Szbj2EvMe2XsDbniRs1zCa0+u9wv0iVmHU/xEQvYE30TfCFYVoGIm9PiHkbmp7oqV71ZRb20eRW+5/UR01+Y6vdxqFI+DXh1YkJP63Y77XXXtlXGrMKH5IHr4qn5+mnn14TWuSHFVldto8nb49S7KGncaMwoXlwqzLWfFtogcRP1VyU/a9s43neXghfhFZpXx3RY9f6bQtFjzzs6qP2lORNqquKnpinxw8r1piS8DDhl+fpUXhbTDjGkmeImf6nZ1MYdmnPRC1ShYklxglv83834bP3N3/zN7OFgbx9nbHfgp4JttfNwqbzxG9RYgz1O0/Q+c8dfxEkb0JStqfHnq/6/yopzJn6QQACEFhDANHTnOgJJw3+SrW9EBWCZV4Mm8TrO9u06096Ynt6NHGUcNGKYN4eobwh3lR4W2y1sEz0+DH3sUm2L3rU/qI0qPYije0DiL30/RdvaKNYJjjVXyQSqqxuT9s+auNf/dVfZR6uWMIBjb28s02qhjZN4umxEBQbi8qcp3Frm8NtDIXhbZacIcbfrlWfVY5Nesom6+HEfl7cqoa3+fYM0zbnZW+zSbC+t4+F7EoMx/b5TPu3UEX0+Bnl/OdWnlDyr/FDyIo8PZbkIBzPvufb9vTouaO/+2FgoWAMhZvYyk7a/O8nePHb6p+dpb9PKnqs7DCMLiZKY55y//7Y92G4oSU1KLOpX3/Z+2bcqRjhbeOS4z4IQMAhepoTPf4LSEPLDpazMIpf//Vfz+Kg9QIxkRNOhMpEj63IlU30YkO77CVU19Njdfj3hWEZVc/pyfP0FIVmhKIn7+Xte7esPP/MmnDzfNljocqenlnYR+30V6svvvjiwpXePBEzjqfHD7EJw2osDOiDH/xgth9Hn3BvQp7oqWKLcOW/jHUYUjdPbmWhObHfkp9Ry89sGHpGlBnL/73ZpF79DVOq62+z+i0UeXp80eNfN47oKfP02J4/s4GEuC8ww3A7Ky/0PoQ2NM5HH310NLFJTOA0JXrKfrtlIWP2vcL5JN4kHsNzdWILEFXs479vTDheeOGF2RlKeo/ZYbvhOV556dw1ZqssHJQ9v/keAhDoMQFET1z0lL1MYkMmfGn7K616uSp2/POf/7z75Cc/6b785S9nceNajfcPXCuKzfdfvmUTvTzRU3ZOTZhxKG9PT7gqa33NC2+r6unxvUiaqCm+XpuJ9aIMVxvrenosRMrC8ZQdSiu6VSba4QpmbOXcv2YW9vEn7/4+HhMklna3LAxknLFeNnk3FrEQyXBM2bjWGKlii5joCdN3h+M/3MsS6/MsuJWx9r0PoUdTfVKyj9DTqr/7TPwyPvWpT2WhhfKA+gxm+VuoMkE2YWaekir3+Cyr7ukJ6/HHSejBkYiMLRT419kkXAkQtLilkMRQJMT2slQRPXWfvbEMdkWix/dyh4tTFrIme0iYhhxC+xSFt/lHEuRl5QyT4RSdY1WU8r3HUzm6DgEIVCGA6MmnpAd/mLK0iGkY9xybwPj3+x4DizfX9zY58UMiwpeXP6lWWEXVcLCm9vSEIVJFG6TVp3DDbPgStdV4PyFBWKa9iLXR9vvf/3624dnKKcpCpj5bRiYJTZs0loV5+W30ban+lKVrnYV9fNHjZ24LUzPbhOT3f//33c6dO9ec8VT2jIj1s46gK9sXVpa9zdrn8w8zFpa1p8jTM0tu1pei8JwiD1r4fAltZ78xP323XeNPcG0czOq3EO43yks4Ep7pYl6gmMiwfVz+mV3+71zf29gNf+fh4pEJZv1dCwXaG1n0+1Z7fvzjH7tnnnkmy/YWetH8PS5qn+xh562ZPfxxbx4PfZd36K4/hqs8e/02lIXqxhKZxJ7Peo7Y36uK0tj7Ju+5W/ZMNcEaLn6VPcP4HgIQgMCIAKKneDD4+20YNhCAAAQmJWACxA4ynrQ87odAHwjoXexHRfShz/QRAhBomACip2GgFAcBCEAAAhCAAAQgAAEItIsAoqdd9qA1EIAABCAAAQhAAAIQgEDDBBA9DQOlOAhAYCEJhPuw1Akl/uADAQhAAAIQWDQCVRMOLVq/JmovomcifLvd7A8yP4W1JlTawKvNw2XZtKq0KG/zdp09SOPESNvZQ8qoFssWZG0Pz6Xw+xTbWB72ucqPNUyOEOMW2xwbtq0so5a/KbjINrH03HZ9lf7ktSPv71XbpTbENm/7G9l1TdmJ6X7fy5jFOFVJDFJWriU00Dk9119/fXYopH3838Q+++yTnSrvH7pY9ruy+/X7/JVf+ZUs65k+4x6CGvudW/v9c2Bi7bKxrXO5LPFGmExD94XJPqoyiJWVx6doXI9zZkqde6rysrZPm1vZGCr63k8mMc4ZWNPkNkm/dO8029ZGm8769zNLBlWOZAjHS9V5QdEBtf67uizV+qTjtQv3V3lf17Vl3ev1Tldm3diRCGWMq8wDy8oY6/s+i566GbnKAIdCJDaBG0do5E0g89KEhtcXvWDLMkkpbWuVT5hRa1LRY7a5/PLLoyl61aayB2PeQ8FvW97LyxcJoWApSzeblzpWotefxIZcbbyce+652YTdMlTF+Mum9ikT0WF7Y+OyLANaXlv9VNn+NeMKMr9tKi9MRV0mLP1Ut0ULAGWZ+/y+hL8fsdKDXqnPJbqqvHxsvGoM/Oqv/qp74YUXnMa2nR1j9eW1S7+v3/3d33Xf+ta3nJjrE0vvHfY5j4F/hkrR77vs8EuVU5a+PSw/NoHzr/EXM/znSjhh8n+js+JW5VkYXuO3LTyTJi99e3j2lT9+8p4h43Abpz+xe/pm01n9fmYxrvMO6C4aG7HFxDoLrnkiyTJU5qU2b2q8zrucokXQ2GJu7L0XvneqLAJbv8Ozx3weRRlEdZ3/HPbbFY7VsmyMiJ4GRmHq3NA5l7jh0LkkKSwxnLjYgJnEExNOJjU4dA5P2aS0btdtoq5JkCZPWjXWRNvqU3kHHXTQSCzU+TFYW/wBG8s2lTdJrjOZVF1aqRajqgLOnwRV6Zf1w1/BUBpVpZB9/fXXs5TkoddKfdDHQpvGET1VJ/1hWmz/sESzRZGnx2ydd7K9TZbM6yHvRez8D50xEp7h5J+fU3YOjrU1L+Vu3hg3QaaJ3A033LBG6OnfDz/8sNu0adNu4iAsT4zC8zuKJmJ56Z+LxLrVOY7oCZ8vdVJTW1vtkGOJnvDQV7WtDoPYpC02znzRo7Nwys75Cl+qsfGWNxbst53npQtTX4eevNCm0+BW91ntX18nffssudXtU9Vnm8rtqk1n9fuR+J3luK67+BUT+HbWVt64KvJGz1r0lIn1ur8NXe/PH+oKyqLD3LVApmde7KN5VF2hOG7bdBZZbL7hj9MqC4GInnFGV3BPHdETq67OSkXs/iLXbez6MiUcuyc8kdoevjoNXJNEC/nJm7wVrTD499T9Qaitfn/qeHqqhH6p/PCBXNfTY5NCvYj1APn/2/u2UFur8v2vS9MfoSZthAwKBZOt4olgb4zADMRCi8A8JAiJUkhKaRIhduGho/rHdheRHdSbrPZFiO6UMDCypPIchTeWKXgiM7zr9+f5/D2zZ737HYdvzrnWXmvNZ4Ls5ZzfYYxnjPGO93lP46WXXhrOPvvsmbL82muvjUpdDD3q3eTjwa5oc43wxn6r0slwSBwqGT+lMzRqS4hhUCXFC0JMNyvFNjs0NNv09dn8m6FhILacmyTt+A3eElVeo6en57DSmku+5InoIT1qjZyi8Md1XQrRKhEfnec4v4sGDGKDQ47Rfg3dm4oBxw9hgiWDA9YJvFGYG1gT8QDQFpFF+xgi2DL8REVIz/Kh4ozzyHhGS7b2NwK3RbapqaSnJT+iTARZnAe3qX2aR17P27bNOqYbtX5AejYSA8q8Qw45ZLjnnnvSqdEKd+WB4qXw9xhdEg9kxz40VYGfOod5/XqTnlK7amuo16iWeXqiISgastQw1nsYOPqgzwHp0QggzAfoTTfccMMYhQDdKratV4fCu1pnPs471rP7Vjm8LbNS4LtlJC/HibvwQIUH9E6iTAHLDoxrhbFMbX/L45NN7BjSVvJwRIGVEQNe05PTQyxLwnxeT09LaYnEQMPZbr755gHjFHNSMmE5JZ4+U7wQEhbnfYv0ZJYcfTY3Ez0oE7/rORs0EugYtcLbdB5iDtFDVQuDzEhHnJ+qWJP8Ka6RkMYDHenRjWQQz4BXphTzrG3DwZilgzvRb8wFXH/66acPN9544+yZcd1kazViMI+lupbD15IPNXkQQy0ioaEBZseOHTPZrEaZL3zhC6OHsCQHlolbq5/x95I3GrJm586dw9FHH73GI595r0oHTy+K2zx5Rdq/7TymkE0I26yt27iPtjylU9dPK5Jh2fO6lc/RkjO8n+1mLqLOmVqfIM9pfIukJxphVX+IupDOa5K4s846awwtx4f7DfsDYw4+MaSdxiD9nn28+OKLRyMzZE4tIgLtxKc3TYD9yg7/hfFLPSwl0oNopX379o0EBLgBDyUjMbqlNc+iDhXfm80Lfoe+Yw3BeBf1oczTsyHeH5Oet5ZkS8hN3ezigtL7Y/7L1Gfj+h5rW6aY1gogZEp6rR9sd0YWpnh6Yv/pHoYXJgv3mgcvvQdto2cMQqu1+a836aEVfB5PT/T8tbApWZs1dAqbc4v0ZMp8aU5SqJ5yyimjZw1GhRJJIQboB5R7DW+Lc1eV4ZJiiOdgvX3ta18b7rrrroGKs3p6dLOncAYBKXmgsEnqvNR+k0ycf/75Yz5SPIBULW2at4H2tCykOj/QBnjBvvzlL4+bL/o1BQOMA5W2zEOtYUk//vGPR08P8phq74hzr2WxK3nAWh7c1hyPvy8Tt3kNYlmIcNzge/u9UbhNxRnXb1Tb1ntMW/qAGg0O5PqhHFpUHmBeQwY9+uij+xWIoX4Exb22pkkwLrjgglE/KeV7luYV+gDvUvT04HoYg7B/cP098MADw+7du0eDEpR4RhFkYcRodyQ63H8yTw/ars9UYx0jMNAmvBN7JeS8GmRieHzW3x79jUY3GA4Rjg8PSi2EjPIDsvpb3/rWiD/kONrHokVTDaRZkYKe0LXY56y/Jj3zSNhwz7zhbbQUtDbpKU2EYv32t799jSWPwoNMuxbCVHoXF2+vp6eUAKdsv6SIcROrEY+SN2aqpyfbZDJrNHFpPT/iR2KDZ9YSr7N3zoN17z2lnB7Mjaz6WBQevWGImmuT5fTAKqfhVsCP749ucN3crr766hmBycghNituEFHJjx4QtThhLR533HGjov3Rj350FOKXXXbZuJmWcnwypbFkvVRSrtcgzwteG34yQkr3PjBl+B43vdqc5XqKuUe9ciWutWwj6cUgKm1qQYyhZiQ9maV63hwAKoqZzI2WR2zcF154YRrP3jJYZDJsEdx6xypep4qxhprG3MtWxcFl4tbyLGZ9rYVkL7NtrXDIZa6Fecb0QK+fZc9rjB2JA/YHldUtDxDaEo1vpfBhxTpTnrOcnmeffTbNvS2FpmlYMmS1hv3j/elv/mEAACAASURBVKr4x2dkz1T9iARMi4no+yAjlfT0GI0VkyxnWfdPnfcxt0ZlP2R2jFjAXtUTLk6MWgSY7YaOmYVDal9MeuaRMh33TCU9XKiab9DxmuYlnJiowoWwi3POOWe0CEy1ytdehEkEa8cxxxwzWj8yYYEclRJh4cLHxqfuz/jOnkW7LE9PDGOZalFoWUrx/L179465PMcee+xwyy23jHkKLYIZBXj2np5NOL4nCoJ5PD3NyRi8giVPD0MRiDlybajs4h0UlvCElCxrbMs8JZ4RogSvW3TNK/GCxeqxxx6rhpzE+Z5t2LXcMOZ1xZLYuqb37Nkz5moBy1NPPXWsqAYr3BNPPDHAyvnb3/52uOSSS9KhqRkYcEMp1ABr9Pjjj1+znjFWsVBKZoTIMJjHUk3Soxa6GulphU2UlOqY50WlKm7Y0VuXhQYuG7ee9RavYajzwQcfPP6EPCcoTRi7jPTAMo1218J24ztARubBbWp/PKZvIbYR62ej5AHnJ4xLMDIhtOz222+vTo0s5CkaUjPdI/OK8UWY8wi1jp4erBetysnrS2RMjXcZYeohPXHtqec76ks10pOBiPdD/9AiVCVjbAwJx/NosIOBTo1VwIN7thIiPAP4xciZ2liUBp/herGQQdx3oo7UawTGe5fpfEj7scrhbT1uyKmbAq7XzVgnAwQKPvOGSGhb2PZWuEkr6RD31yZZyZPDtvQq6iUcITzxafVD74/xvPgNSmhpQ1bvGJQMKM7qLmZydNzM+M4YqtdDenosXRETJZitnJ5eKy03EvaxRXp0Q1HSw+ptmaWXeGCzBFmglbblBcjc2zFsRTdO9Wplc3aKBT+GrtH7gv5raXG259xzzx1+/vOfjyF3f/jDH8Y1HDddvP/pp58e3vWudy1EeqK1n/2KpKdkPeN60LHMElw1vK3X01MKMYzl1WsegZZxovR7lKW6brN71gO3efcDtJUfjCOwx1qZ4ulZD9zm6U92z3q0bTOP6byenqnrZyMxKI2hKtOl4xgyw2krlKrX0wPSo7mgKteyYyCipyfmsPSQnlpZ+HlJT/QiKekoVW3DvvQ///M/s/A0XXtZbg1levQIAQPkEB500EHNasItY3Ppd8rbzJBuT8+yJG14zhRPTyvMad4mZhOCyiws4MsgPBROUNxhLZjH04NJCBK2a9euMY62RHzm9fQAPwh4/EdXefz/Gsa0DNTCV9g2jc8thYeo4L777rtnpAdt0AUZw5OyjaBFekqhaaX+RmU+Kx8d751S+U8JWC/pUaGJd/e4xbPQu9p9LdIT3fdUGECqkJ+jh6uW1nPmWYljrJsk81aIL9czc5GQC8YS5xmxjc/OiG0tvK2l5Hzve98b/vWvfw0PP/zwEDfKRTAozc2o8HCj5rpsEdtFFGSML0JR4Y3V8dAY/RqxU9KzLNyy/qhlOZ6vQ+8yvP2xzHic//MSh4jBFNzm3efifb1tn9K2jVoLU8e0ZBwrzXUND526fjYSg3lIT5ar1iIl/L2mXGtbaIjS40RaOT0kLdELg2fVSA9/1/xKlemZd6nH08N8KRg54r6V5bgqrjCSZHtGxE/339jOKXK6l/TAkMNQeeqPTDvo8dZk+39LHi3FUbGqnp6SMs9KHLXQsNLARAWLAo7PhPArxUm2Blt/p7sSbmBaaHvC21S5VjJR+j5rU8vzQ7JDz4AqZrCC33TTTQOU2VqlNCwk/g5FIS4svINWE4ZhQZDE5PMSprUiC3HBZwKgRXrQ5swdP2WMubFSICK/BZjiE88Vqj03WpcyN3MmoFSQL0J6Wuf7xHdzfqEss5bA5LzKSFQkv3GtRCsh1wquY1UdHvaKa7X8JgsbRC9LCfPWhrHM8DZtw1QMeowZfD7XInMQueaQWIyk2R5CrG2tKcgqi6KM4Nyl3FMZVvLyZuFti+CWjXtmxey5LluLtUMD1wO3qTKpdP16tG0zj+lGrZ+NxGAq6WHbtMBAnB81uRTDq9SQF9sScahVb9PfWqQH7eU6LB12rHKoh/To3IBB9rvf/e4s75V7D/Q2jbIhWdAqomibnhWoXmH8pntN1q4o53qLQtX2MO1bpkMiigZGW4TeoU/x8O24N8c+1eTRFOJWlWurSnp6hD0Wg+Yv9A4IzpPAhC6FAjH2vCcJN76T8bdQPBCvWjqUkouIsd54p5YPLvWFAgCJwy+//PKawyJbmPGeWt4Fn8HFg/b98Y9/nL2nhgn6BEIBZfib3/zmGBfPXJRWYQN9bkZ6VAFpXasCGUSWoXlMbJ+qBEZcuRlQ2IKAQxji0+M1jFjUzg9Sa0u8j5tHTdioEIxVCVtCKlp6dM4qoSc+2fOyNVrqB4kTvDlYP2qVx3OUHHGT5ZrBvaVNQxV1XNfyTi7i6cnaMBUDzqOsdH2ci/T0MF9ErZRT1pwqF/h7SvhbtI6zjeoNzgwepfA2vT/K99rcyeRfa47HTR7/z/DPXk+PyqZl49YqGNCS+evZts08pi2PLnFbdP1sJAaRaNTGtubhyWQIw9D0IPKM4CsRmhLN0Jqnm+H3Vni26kalvaa035KoQE7Xjj3gO7K9Wg2UrSp9qndSL1OSw77WdMGpnp4eg3vXOJv01GGiV2UZYWldA7LJL1raxNvk/XTzjIARMAJGwAgYASNgBLYRAiY922gw3RUjYASMgBEwAkbACBgBI2AE9kfApMezwggYASNgBIyAETACRsAIGIFtjYBJz7YeXnfOCBgBI2AEjIARMAJGwAgYAZOet+bAlIRUnTVTc36Y4KUJwT2zcMp7eqqqsM9Zda1YNUkTHFGnXxP1s8pFtYTI2NdaxZYeXLJrsvMBSrlItQO6Ig61qm9sB69BMQste6ntnGcOtKp+zYuV71sOAlOTMpfzVj/FCBgBI2AEjIAR6EbApOctqOZN0I8lgTPgs/KLep5M64wDJSinnXZaerhUrCDF6huxtKZW7dBKcKxkpTigylU8HTmSnowslvqTvU/vP/TQQ4fSOTvAoAen0jW1w0JrpK4Hex1zJUZKCFuVruK8yUp6Z+U3uxe6L+xGoLcEcTR+TCm/2d0YX2gEjIARMAJGwAgsB4FVJj3ZOQkZqiQQpZr52T2RXMCjot4drYWeHZbI80N6RhntwzkupTNMWP4Qz9JrlITg1GN89DySHtKDe2Jd9xLxyOq/l0gPynFPxQBtifegfDDKfsYyjjo+NdITzxmYMgc4drH0Zo2AtcZ7HoW89cwpvy/lcDB5YSwVPaUtkXRk5/HgmlLlxWgoaL27dLYU7rOnp4WefzcCRsAIGAEjcIARWHXSA/hrZxWoMsOa+ziQDx6P0qd0nkjpwMqoyLYOONT3UoHm4ZX33Xff7GeQIdTF53tju5ZFeuJzSzhl58d88YtfHPbs2TOcd955w6KenuxgUfSfH45z1l56mNSTRZKIw1HjSeulsW8RGoapnXjiicPtt9+ePqZ2QOGUs6PWQ7RsJ9JTwqdFLHuNJXh+z8nU6zFOfqYRMAJGwAgYASMQEDDp6Sc9i0ye2mnH8EZceeWV+51eW1Oueg6ChIIa80r0AEiQNx7UCE8PwnNwmi49Q72enohLFioYc1J4zeWXX56SHpCPLN8oGwNa4J966qk1h7WCBO3bt2+8BfiSqPaSnniacI81v3ZNK5eHXiR4BDMizvtff/314YwzzqiSdSWYelhm6xRsXHvxxRcPt9122/Dkk08OJGDZeJQ8oHwf23vWWWcN995773gArc7bSIJbh/XGUE2+Pz7n2muvXXPgLckH/sVhlDt37hzDKPE+zPlejyLfl5GibNxb8yVbn4vIGN9rBIyAETACRsAIVBBYddIDK37ro8pOz/V8XlTiMmVpilcHzy0VKZinEEP09CyL9GR9ih4QYvGRj3xkFnK3Xp6eeKq1YoWCAz/4wQ+KU0AVa1yEUKlS8QOQLyjUBx10UEpI0GcQST25mC+mQg8iWvI8kjheddVV43PgJYseKBINPPcrX/nKSPQefvjhMfwRIYPXXXfd7P28dseOHWO/OLdw76233jreC+LJ3/F99PREoqY5bvQ+6qnMUdHvDW9DW/fu3Tucc845Y7uixyt7Tmwrx61Frno8PcBCx8mkpyVF/bsRMAJGwAgYgQOMwKqTnqi8xOFoWWupCCLh/+STT66OJhRC9erE/29NhZpinOUnQCm+8847hxdeeGHNo5ljoqTnxz/+8Vi0YBmenixcDxZ2KuHab1j+mWekpAftqZGRiBX6hPZnOT1QToEdFP7rr79+9DZoblMtp6fmfcmIZonE8v3veMc7BpAW9SK1PEDsq1alKynmpSpvfEcshKHX4z3IfbriiitmczkWT4hEokQ2jjrqqAGEFqRJ3xnb10t64nj3PCcjPfBggdCBLEbPUWv90Uv1+OOPj5cuSnpa7/PvRsAIGAEjYASMwBIRWHXS0+O5iXH5UASRK0Klp5XHocNFJRKEBCE2UQmdmlyNZ8PDoLkxqlCXPCxoO0nPJz/5yeGOO+4Y82rwWSS8LSNyrGgGZZF4K/HKSE/0YDAcDn07+uijZ0q5KralnB6Ok4bUgVRddNFFo/JbIj3AgkQJ740FJzLSU6oCCAw+8IEPjB4KPAtjX/vEpPmo5NeKRSjB5DtKxErJIEhnDLXsIT3ZGsL4wmsVC3j0kJUMl2xdaKhcr6cnw0bfh/l07LHHDs8888zYfniVFCOMnXN6lrgB+VFGwAgYASNgBDYKgVUnPdFiG3HPPD2RSGTliFuVnqAoxqpetTFvha+VflflGHk7WTGFGNYUCUfNExLDlTRnKKuaBSVare09JatVoQVGmuujhLRFepQAMJeJFv9ShTvek3lQMszjd0qC8Kyswp563LKCCSXCAlzieEZ8I+lpeXrmIT2xalqNaM1LeiKpyYhIq3pbreR3LD2vIYxxLS8rp2ejZLzfYwSMgBEwAkbACAzDYNIzrZABQ2IQukOlfoqnh1ZihGLhWVl+R8nSnSnMqmDi9zPPPHOWhE5lDeFtaOsJJ5wwCzGL1m2EIzGpO5KxSHqUdKhCqAQIpALP1BCgWP459jN6L3j9rl27xku1GEGWBN5LeuJ7VIkthawpUYuYw0Om3jUlI9qmEjFtkZ5SxbQsZC3m6aCtrZweEqHMS9fy9GRjSs8ePDHL8vRE0gNM7r///tn6WcTTg2c9+uij4/zXsvKt+arztycMNs73ZVfC84ZmBIyAETACRsAIVBBYddIzJbyNCiWS1Z944okRVeSpsMpZLaeHZEcJhYbstErbtjw99LDEcse0WCOp/NVXXx3zLNQDE8lDpvgqSXjttdfG+5Ebw/5mRDBaztn/Wj/1PQg/Y+U5kDZ4YkCgrr766hl5I5nDv62cHl0C6m1Af0AWWZY64lyrsJWFXKF/73vf+8bcGCjQ8MSQ/E0lPVlRgowo8l1akluJaa16m/7WQ3o0D6Z0AC6/zzxUWZgez1CqFRiIWCOcExXhMA9BOPX8JD4nthXYaXhbJDU0XvzmN78Z88lidbhYMXER0tNaz960jIARMAJGwAgYgSUjsOqkB3D2ntOjieS4rxXbD0UcHyhQrYpRpbCwWpiNToUsrArkJJIcPo9twzNKhzdq/0qheK2KZCAr55577vCd73xnRiwyizeLFmTvYZtrIYN4Zs3TE8eK4xG9dIojKrtFbxXew7GqKcFUqA8//PBZ4nwco9bY9noCSkUKliwqtvXjphggMiCmenpKuV/bGmR3zggYASNgBIzAgURglUnPgcTd7zYCRsAIGAEjYASMgBEwAkZggxAw6dkgoP0aI2AEqgiUSkhPKfhhiI2AETACRsAIGAEjkCJg0uOJYQSMgBEwAkbACBgBI2AEjMC2RsCkZ1sPrztnBIyAETACRsAIGAEjYASMgEnP/HOgdECkPjEmLMdk+/nf3n/nPO/MKnm13lg7B0Xvzc45we/ZuTP4XitztdoQK4fdd999rVvWnJdUals8kLb00FjsovlyX2AE/g8BzvNTTjmlWFxEi1/UgNMiGyU5VSqVXnoHin988IMfHCsTPvnkk7PXx+qAqH6HkvyXXnpp2sQsXLF0FtWUdbZIcYgSRlropIRLq/LmlAnuqn5T0NrYa3uKldSOr9B9LCvKs+y9g+9DFdFasSagyGMGUAmzJmOiXImyII5IrdhP7+iVMF02XmzPZsatpJ+UsNRxjdfoOFOGT9G1VO6XxqhnzcQz93rnxdzXmfTMDd14zg6qk0FQfP3rX1/zIC3ny4Mvcbr71Ek7f+v+e+eUc4QiOSkdPMnrYn9a/09yg3+jIC4pPj3kks/FWSsopd2rPERCGNtP7PD8v//979XNYx6iuIzx9TMOLAJZ6fJSi0oVCLU8OebZFVdcMSsJr8/qMWDEuZ+dfwWZdPnllw8oDX/RRRcN2aG4Kje4LkB6IOtQMhz3ZAc1g/CU1ou2PzvUuTaSxA790zbwnpKci0pcLOuP+zMZ0yN3MqUiO9+Je8Xpp58+llrHUQfYD+JnEeJ2YFfB1nr7PPtwjwLHOYgjIvTYAKCTzTtFbQrx12qk2XNbMimSkd69q6ZExxnQuwe3Zk6pbbX12aqsy3dGHDYzbvEYkBZu+J3jdeihh+5nrMqMTz0yL9PhVPbquD/++OPj+Xel41ymEMye/nZdY9LTBVN6kQ40Bg8KxGc+85k1m1ncxLKNOVugrRLXtVb3snVVwHqFBN6riyV6d6Kga1mQoDzdeeedA87ayT567o1al0v9X4anB2f28L1Urp599tn9SE8vziUBO//M853bCYF4oGzN8jWvpwcWWWw+ULZxqCs+KGePM8bmJT0440oNOrphZusF7yyRtl7DTNb/kgeKCg3OJ4P3CaX5S5t69j3G4Ve/+tWAsvP4RCNNlPklEgc5e8EFF4wGLxyw/NRTT83Oi8Jzo3Jcmtutkv3LWhO9pfJ735cdHNx7r17XcwBxpnj34ot7axjXSE8swhKf00OY8P4epRPvwvo644wzxu7G8aI8ef3114djjjlmP69xaXx7DCqR9LQMF8vw9FBu7Nu3b3jjjTeGWvTGImtks+PWo6NRN4tyMhKcEnmdotNETw8PC8d4cV/AdyXS0/OuRcazKGNMeuYRv/8NuaJFtuQxOP7448cJcPTRRw833njjmpfRQvPQQw+tmRjzWKH0wT2CM27YvUI59rNmISq1Q/vXY9mMz9H7SyE6JStTSbDzeuD4/ve/f3jzzTeHd77zncM111yTTpBoXeu1lM0323zXdkWAgj+GtJWITzZ/axZVGiWAH8Jcnn/++eGRRx4pKg7YyCCzQBCiIYLkAoYA/H7HHXcM55133ujpxkfDU0vhoFn7eWDtiSeeONx+++3V9QZljwSGyhA8Y/zoAb04dBjty0gPDhAuvYsbLQghzunC55VXXhkgp0uGl1aFwZKcK8mvCEKPnFzWGtlOpKeESWuP7VEw+WwNbyR5P+yww9I1pO3JwiLnsXwrGcTzQfKw1mFdx3q77rrrRmKEdYCQ00XCMQ+Ep2dZ87r2nOhl22y49YSAZekBpfGqkZ7Mi15aL9TNgO1ZZ501/O1vfxthjpFPxJ6yFYYfzMUSqVlXfcqkZ74lRaEYT23H0zCQO3fuHA466KBRgSDrxcKiN0hDNKaSntamNA/pmQ+Ft+4qLYhsEcbrezZz9qemqLD9tD7EQ0Z5+GnsJy1RcP9ioeIdsOwijAfPgmWWcc618LaWxaulFLXwp/IKwQKijU98ZinkgfdiTlIYReU2I3Ear72I5xFtVatOfFfWbtyD92s8OjB+8cUXi6FBLQyjZSn2SceQh/fq4bSt+1vvj79HGRJ/zwgRScPZZ59dVao4N/AOKOwgC/CqQtY899xz4701hTsSqRje9qEPfWiUZbfeeusY5ha9VTWPlM7bVkhPVAIjacL/wwKMD9YqQ8a0/fN4emi5h+eeH3jGSKRI9HTMstAYyJddu3YN99xzz37TA/Ov5W3jTZmc1Pka86o0n0rxpjJx8cUXD7fddttI4rgegV30inB/K8199hlyCWF7sMKrdT/KxZYciR6TbH8FJtdee+3wxz/+cQ15x7X4/OxnPxv3X8g6vA+W5lJ+WRwUvi/b0zLDYPxukdwGtAXzmWsKEQdZ2Gk250hyMhmk8jUjPPy9Nm58rnpPezHFvfN6fChHWvevR37PZsHtG9/4xihrMw+X7qU10oMwM8yn0ifqQdgfgGnJq8b30tuP55555pkDyD5kJOdutmY0/Bf6ViRZGHPIJq6Dqftq83qTniZE+12g7BbCRgealkhaCJX0gN1ScdZNLLoAW1aoHtLTSjBEpzRGvud6ApEpyHHi1qzPVMT+9Kc/DR/72MeG3//+92sUlkz50+dP9fT84he/GBOrafmipVjbiHcyPwtkFRtlZlHOEkLRHliFMS6ZMtQTNtCahRT+VGBi3oCGPJQUUCocfBbHH++GsrNjx45ZCJASDio8pTyTVtvZntNOO20MEcLzsBagDAI7KCkUcGq1hKcBVsrrr79+tFIuKggxvugzFAm15GHMYjuIUUzwJAlbFJNsDZesW9o2yheQHhpTgL8q4zFv5thjjx3DtKJ3ZhHSAwKFDY8bHMjUAw88MAunUU+PtifziJfWjhIPrruM9ECmxlyjSHpUQYP8wpzCe5mbFA1FHB/KcWBcUp6pMOBfDReM8gVyCOE56h3TMQCe0cMWlQsQO65X/MvcoIcffnhAHgnmBy37mNdRFnDe4l6sORIdrn18H+dmJJ4695m78thjj83kXzRO6JrO8pgoP9DWvXv3Duecc87Yrpps4HNiW+O6Lcmm1h67COk54ogjxnzfP//5zyOppBEUbWEod8nCTeWd7S4VIMiICklTJCMxDEkNgEp4VYaUyFvL09MbptraMyKxY9uYm6KecRr1SnlyPe/KjDSbBTfKUhirqMegT1kEDA1a7PO8np64V+h60PdyP8L70DZ63TlvM9ITx4Ny/vOf//xI7mqFfHrGsnmNSU8Tov0uwCAh/OnBBx8cBxrK8cEHHzycf/75s3h53qSk5+677x5gIY2egzgxWgK51eJleXp6vDBsS7QyZFYHFcrZZl7aEBcNb4Oy0fL0aIgO2hk3m1K4Dvr59NNPN2ONl+HpiUp/zbql+EfLSaaw6/WZkrKIJS0qXpwzWTsY6kRLEd4LRRH/1ayZrTURf1eCAWVVQ0JwbSRqLUxqng19dy20pMelP9XTk22OqmRmOT2lvmh4G8kCZRXkH4wFf/jDH/bLISiRfoZsvOMd7xiuuuqqNQaDkgeoppxoCAjGtBbehvZrqJzKGMghKN/vfve7h5dffnmEC94yGGlAOvTZauQoeXoYWkSPVI30aI5UJET8DcYAtabqeGIe07jA73VN4TsYNNSAEZXGSCRqcx+eqvjOuIZ7SU+mDEWrcSysk5EelZPRc9SSEySwsIzHfSBT4PQ7vuuEE04Y1wDahnmGDyzmCHGH4a20r8ZxysKMYvtLsjVe11I+o5Gyh7zEccY743hM0SFKY5MZUEn6gC/0r+gVi57J0rNb+/Jmwi2OSU0vYn/paZ2S08Pw5R5PDz2Ri3g4OYdBmNbNu6MTwKSnJQbLv2OgadXB5gcrDv7FBk6hqaQHHh1YtW+++eY18fDrQXp6PDfR2hQtv1MEliopQCyzylP5ofUUxALvgBX6kksuKQLdK8DwAJIp/J1tGi2vC5U4buYl9y6wQwI4BC7Ibi3spfXOnhmYWbOUiGSbu8bPYt7RElYiPVQoME8zV3hrg6j1Q8ew5WHMyqIuw/oTQ23QXhas0FBG3TAY3sZNNvZxEUzis3pIT2YQqXlVI+mBol8LS8nyE6Co8b3Ro5J5cYBZLZQCbcIceM973jPs3r17fHZWATPig3vg4Xr00UdnxCoaIyiztDJdidxo9blSmEUrX6gU5hblAfqIHMFf//rXVU9PD+nRQghqKCoRRSWDsJTHud5DekryAOF/0WAwL+mpkUZ6Y3tIj8q6TCZBDsD7+cwzz8wKD8WcidJ6z56nYXWHHHLIGOaD+cQ9GHsS1s3b3/72qqcnGpZ6jZ+x7b1ET/f/eUgPsIgec/RBE9pB/mDBxzqveflqe0dJvinJXMTLw3dvdtyy/SuGt5GoZ57A7H5cr/ttSedrzUWSHp332ZjqftmDtwsZNLTD/x2G/wzD8LbhP/8Zhre9rUeXXOiayG5VAeAkUdKDRc+BhlINgYDPepCelpUIClasNhcnfGlSlqzVVGxhFS2FerG/XJw9hEDbxVBAhBSqgoDnwQKKBYwP70GJWObAlAY7VrFj2/T6kqcH12Sb9bKV4xrpyaytal2NSlIP6WmVKp934ahlEqQxWp3jc9mPWhnnnrbUvF0U1Gr97vH09Lx3yjU9pAfr6qSTTprlT9Ser/kYmTxYNLwNpEE3w2wt8zuEsH7605+eVZxiu0sKTaltpfC2rPw9vVg10sN2ZN5xrnlcA28uQshKVSYhQ2B1Bs7IbwG5wQdFUZgfeNlll414wdODTywb3hvehvWcGZXinFVljh4TfDcP6SnJg4xozUt6okcoIyKLkJ4o99RrmFVbi/tAy9OD61X5iyHZrGKVKZaZfO+RB9zrMs+fyoZleSyy9cr+wBuPD/KpYAAmHplhYIpcjO/kOGo1SpDyVr7YlHfy2s2EW837xnVI2UNvsoa39YS6qWG6ZbhSAjPF08N1h9BY7CGl3LUpRvdJY2tPzyS41lysA10SUHHgMkGbWdZrCzi6kGMP5g1vUysNBNWUSaeEB4Tk1FNPLR6wGL0prbClSCa5eeD7H/7wh2P3oZCo1YP3MPyQBFPDg+BhwruV/JUsGi3Ss6inpzWmU0hP3BSmkh4odsALeQ+sr1+L5S4pW6pQwmNGZQ8YM/YY/dbiBOr5U6ICxbWW0xMVpLgmIumhJUwTpbUd/J3rkAaAXkzmkSotJYebPxR8Ks/M2+D8w5xGpdaEIQAAIABJREFUCK2ej1CSBzXSE9c+N396RNA/jGm25uJa4xqEByiWL10v0hPjzmNOTwyjaJEeVYA5F+DlULJFS70WPMA4MNcJ13Oc8DyMFbzEJGexBLjOIR0PfK85eJR/tZwezaebSnpqcz8LDV0W6Yn7USRFVKrxr865zNODZ8FDiPmn+03Wt9LabSnA85KemuyKcgvvwHzCOsxytrTtumex7dibmScZQzMxNzGfMWfRJnis4vkq2TrRcWL+LIxUPYaz1t6B/lAuwmhw1113jXkj2fptGdB6ZfJmxS0jFuq9AXHXsEoQiqmkh/oPsdLcHHyH9QP8YczXCJ0ppEf1gppxfor+2Tu2/6csDsPu3aPYfNswjH+s12fdXS8HytOTWYoJYlTiNMmUim5UBnpciSro44D1hoOpdYvCFdZ3lGmGMph5U0rvit4dkrvMPcn+YQG1QhGiJZHCG2Fl+LCKlSqjMdSudEI8Nmzch995vtKBID2t8CT0c0p4G8MpQBTg9p9KetQjSct2Kxel5VnUcJFYCCMKbrSZxIuKJccUWGShDD0eQ33PZz/72bGSGb070VsHxRDETKu3Rc/nIqVfMyHbIj2cA/Ao7NmzZ1RQoATEEExY4FSmTCU9mfW+ZMGOShaLf0RPI7+PITzzkJ5aorbKXVq/F/X0KLFBv1h4QyvhKQ7aJ3xPJTPLM8L8rp2VpP2JoW9aaa1WvU1/y+ZYlC06z/WQbS2yEM9Di0RCPQ+6H9WMeXENYp6jIhxkNBT07DmxrcBL95RIajiPMR+R5xmrw9WqhE0lPbUQ81i6tyZLdM5ppUSu+xhiq950ksFooEXb8InVF1mQAuRFZV82D2msjQn/WjSoVSK7ZaDlmCO8GaR1PXM+NjtuNU8PxyeuZSU9rfA2DX1legaeGz0+2L+xb2KuMC1hXtLTSsNweFuDjh0I0sNQk+itUCWPZTNLCv6BDm+LibEt0oSNAcQIuUko71wTRNx0MHQ33HDD8M1vfnOsaAOrfYxvz4Y3sn0u3FK5Ybbtr3/967ggS8qwbpa6aailo+Xe1Y0/enoihrVNbd0sGutlvgjP7SEc692Ung1hShtK+RHZM0qbSel9pTygFunhBlZKpMf72JaYFwVSCgUbCnjtkF/Nm2H4oZY1xjtKBJfzgP2OHh8N59Wy2bHyHElNtuHVwttU5qINrXCXqGTHcaHFV/P74jOjcYeKIIk9vMhacSmOT6z4FueMzq1l5o9NWQvb5Vod73kMFjXSw/2E+2FtnVDen3vuueOeSFJXwznz+JQMJ/R4sLJeLCOeKcjARte1RqTE92gOEwxQuFfzl6I+QC9bpie09g71utTaxDZi3WHfR1517wf3MDwOyvxmxS0a3bL+xZLiamBshbehQiqrC9eMv5TPGdmlMaGEfbYvsShOvGfd9CKHt/UuDV9nBIzAdkUgMzxoKe3t2m/3ywgYASNgBIzAyiBg0rMyQ+2OGgEjUEAgWv1jCJ6BMwJGYHEEStZqe7EWx9ZPMAJGoAMBk54OkHyJETACRsAIGAEjYASMgBEwAlsXAZOerTt2brkRMAJGwAgYASNgBIyAETACHQisOumJyY3ZIXUdMFYviQm2pYuZGDY1MbqUsBsrJWXvLVVPKX3fk0zI98RKOFl7piSrtSq9ZP1De7ViXrwmVo/KEvjie6ckFJbOKIilmtmuWKihF+9a1aH1wG3RNeH7jYARMAJGwAgYASOwoQisKulRIqKVXFrloucZnPjMTAltvbf1e9auqaQHlYZQxrP0Qdx1PPemdG12oFhW9WlK1a2W8t5LENBmkoRYCSsroVt7b9b+eE5FJDT4fxLV2OasOhTL/fZiHa9bD9xQ3rJ1LoKexzPPuvE9RsAIGAEjYASMgBFYGgKrSnpUEWVJ0ZjMrCC3yp/WBmSqp2eq0lp691TSgzMA+Kl5eqCE43wcPTcitkHJA0ohZmdr4KTyWKddPRa9Hi8mwbbKX7KN2ras/G98zlTSU8I9I0itNvcSuY3GzaRnaSLYDzICRsAIGAEjYAQ2AgGTnv83O0chU0CnnNdRGq+pnp7WOTn6ntrhTVNJDw6l1APv9D3ZGRaRyMT+qzdDvRWsvc/refhf9LJEkgBc4I3iQaK4X8dM/8a9ODMD/+rBdjgQlYc7nnfeeaPHJ56xk3mp4nuVNONvnkFSO2tlXtITPT2tw0w3ArdS2J7OAXt6NkKC+x1GwAgYASNgBIxAFwKrSHpKHh2WqYXyT0UYXorSoaJdAA/DMNXTo54FtEVP7Nbf8P6SMo7fSp4SEpj4O8gAQrNABlSpzcjgFIU2O1Bw3759I3xXXnnlgD7i0yI9Wf6PPjs7fC4e6sZ8nBNOOGHAwWr4RNITx7WUd8T34UAvHrwWPTMaOhnx7gkXZP/gWdMT0WMblZRG0rMeuPFAOhzmdvLJJ4/N0b5jLcGT9+9//3tGCGObW/lWvevL1xkBI2AEjIARMAJGoInAKpIegkKl9fXXXx/OOOOMoeRxaII44QIooEis/9KXvjSSoUgw8KhIeqL3heSsh/QcddRRs35lzWy9i/dET0+PF4n3lk5Rh1KseT4t0kPyqESiFB7GsUUbQBauueaa4eMf//h+WLS8JlTms7waYvehD31oVO45f3BPltejZITtRmhl5jGjB++pp54aYjhhJGoRg0h61gM3eiNJeiKBIbnEafb0gpn0TBAUvtQIGAEjYASMgBFYLgKrTHqefvrp4aabbhrzSl577bXhyCOPHIkIlFf8e+qppw4/+tGPhuuvv36N52PeEcAzf/e7340eBng3SqFzy/T0TCU9mdcjIxY9+Taaa5Pl9ABnkkBgHEPNVHknibjqqqtG0kgCE9tGTB977LFZaBvHK1P+e0hPqYgEPSiXX375sGfPnjUENiOFJdJDQlUL35vX07NeuEXSk/V3ijdw3jXl+4yAETACRsAIGAEj0IXAqpIeKLt79+4dle4zzzxzDNGBAo1QNs35ePzxx4fnnnuuaK3uAZlW7127dg3vete7hksuuWR2G8mDngDf8r5sBk9Pq9+lXBt6ThASRs+IkgeE61100UUDiiqQJOAeLTtNYrNjx4411eR6iJi2G6QM+UG18LZajo4q9Zw7ILTwztx2222zkDe+sxXelpGejHC1iNpG4IYxYvW24447bswFAxFlqBv6bNLTWiX+3QgYASNgBIyAEdgwBFaV9EAhQ1I7rOwIMVLFDX9TEYb3IVPoegdIz2NhqJKG+1BBxflAUCJPOeWUUeln2NeiOT09nh5WUGvl9IAglAodRDKB95IslsLbNBwM90OZ1/wlkoSsWAMVf+QevfTSS2tIaa0MNoso1IonvPjiizNvHNsQw/syLx3m1E9/+tMBeWDwXCkBiESFmKDfHKOM9OD9J5100nDvvfcO9913X3XaMexvI3BTTw/XzmmnnbYmxA/twKcU3ta7hnydETACRsAIGAEjYAQWRmBVSQ/KLUOZhmcBpAeeByrpmYJaKmag4VmtilaZMp59t1HhbVSOUWUtKx8dJ1etUly8Vj0UvaQnloaukRe+rxR6xzLksV0Z6VEip31UwgoypgQyhiriPTWykZW9jl6kSHo4DxluyfwvnZ+/+tWvBuQUwSMJEg+itRG4xfA24IE1Egs6RLKo4xGLTCwszPwAI2AEjIARMAJGwAiUEFhV0kM8MgWxFT4UFbfW4ZFUiNWDUHv/RpasjvOC72bODPB59NFH9wvVqq0oekFo+c/OmsnOPYrJ/4so77VDVvXdDD1Uz0yWhK9K/mGHHTaG2zHXi/2jgs/74RmjR6lEzoCjlrvWanwx3BLPuuuuu/bz+OC9IGTLID29uEXSo6QPf4M87ty5cz8vnM6beQ7ctSQ3AkbACBgBI2AEjMBcCJj0/PecHi153OvV6FHMa2E+LU+PHhiaERQqyfBE1BTWeG+0wFNRP/zww0eC8+abb46FBfChggulmkUY4vNiWW7NUap5euJ9SkhK2EZSqNXcqHz3enqyfgBLvDt67ph7hJDD9773vQMqk8FLhE+GC/sGrA8++ODRI8NnZtXdoqfn+9///nhPdpaQkmaMezycNOv/euI2VfhMMSxMfbavNwJGwAgYASNgBIzAfgisOunxlDACRsAIGAEjYASMgBEwAkZgmyNg0rPNB9jdMwJGwAgYASNgBIyAETACq46ASc+qzwD33wgYASNgBIyAETACRsAIbHMETHq2+QC7e0bACBgBI2AEVgAB5oGiGqseBL4CXXcXjYAR6EHApKcHpb5rkJyOEsJ6+CjvLB0yWTr3Jqtupq3IzonB71mVsL7WD+NBrSjlfeWVVw5I1scnJpzHwgO4RpPos99L79f7cA0T9zXZP7anty+rch3Pm9IzgWLfs6IJuKanCAeuqx3QmuGMNpWKQSw6Ljq/szLgeH5caz2H1tZKay/aZt/fh0B2TlV2J8Yznj+WyS69V+d6TUZpUZRSdcF4nhjXiFZerM05LZKTVbaMfdbraxhNkf29WMc9R89RK41qCbfS99nYTelLNs5HHnnk8I9//GM8h4/VMXuwjvtZScZkc6BvlvsqI2AEDigCq0x6YjWrFtHoGShuyMcff/wobF944YX0Nir8sTIXNwacGRSrsWlFtB6Coi+OG31WnS57ZkuZ6BH+rWewnUp6WE0u4qcY9IzHVrpmnhLOPaQne27vmBC/1pk6qlDEs450Hi9KLrJKgLFk/BTliuSvdYjvVppHm6GtJWWx1rYeRbz03BaBj6QH7YiHI8dnxNL7bDvmF8900/6wxHypwmVGjlpjla1Tvh+HWPNg6dJzSOLimigdhFyqeonn98j6UlXGWrXG2Eetosp+Rbk/xbhGmdNDpGI743xjWy+//PLxjD+MQa3Camt8/bsRMAIbjMAqkx4eUAqhNeWQ0doQlTaGmtXw29/+9sCDJ3kdSJN6OXSTuv/++4evfvWra5qBzQ3nx0Sixc3ioYceGq/HRl9SeEsWNx7cmm2ImXerx6JGxRh4gWzCu8SDNl999dXxoMuoPNRKfy9z2WRn0Cz6fG17tqnXnl8rn14jPTXlAfMhziEoBzhbqOR9zNrItj311FNrrKq8VhXJHqWjhXN8RqZMTSE9JS9Yqx2L/L4sWcM2LGu+Zu3qaWvPele8Yol57Yd6SyLGpfO+soOVaVT6xS9+scZ4hO937do1vP/972+SHpIUyid4oFvzpUW+ItnoOZMtW//RK4621tbXVNIzRUZxj8HYRUMd2n7IIYcM99xzz35LBvMABgvew+fgXLj3ve99s/L+GcmseZN4XlnP/MnWsUYgxOMasPfig+MKerxei8gJ32sEjMA6ILDKpEfhXJbiwGf2WKIg9I877rj9lExsstjI40GVtGhHgU/FF78rMVErVUZ60NZsM8L3qgDjoFI8+4gjjhjuvPPOoveKnrK4+UYyFTd+KhLYbKBYvPTSS8PZZ589gAxCMX/ttddGMqeHfa7DUpg9ctlzAQ/uIWwtT0/PnGInOLeUUJOQf/SjHx037C9+8YszKyXHDBjrPTWcdVxBei699NLZ5VB2MGY33HDDSGgxrutBejJlr0QEMwW+ZLVfz/nVQySmvH9Z83Ve0pO1teXp6VH2+dwSscZ8gkGGH3puIhGOocCt8LZMJpfGo/c8t15iF99T88j2kE3K5Kmkh+1QchUNejUjWfSicazi93hPlCMY09qhzrinh/REgprJn5oHip47vA974PPPPz888sgj+x0OTayWESkyZd37WiNgBOZAwKTnLdB6QhNq8OomTuFXU0ZoEcQGm3l6oiVJhXxGehBugQ/jl/F3i/Ro7k7cfJDTw02VFjkQKljgvv71r69RmCMuU0lPtsFyYwPpKSkW0RoZ4/HVk6EbEsf6rLPOGq644orx9QyBiGF1GlahypJ+z5yXiy++eLjtttuGJ598cuDvwDF6TtBOfJQk1OZWKUSFGEXLJpX+OLeotLz44ovjJq55QHHMWkppDFPLxhxz8frrr5+9h9ii3dnhrz3iq4c4laztnM+cC3H+xHmmc0HHO94Xc9NIpBAyxzmoBoFIDunRLM2veedrCU/NN1FCEdsFw8PnPve52WNwLYgy1j8OzYVRBp+vfe1r47y/7777mkOoHt4oR7KQK/0uehOBy759+8Z31vIQlRxgLZEotcLbtDO10K7sUGt8Vwo9IwZTD5T+8Ic/PDbpl7/85UxelULwKBvwL/rZazCJXjglDpBl9G7g72gcyYwqzz77bFHOEQeEMCOqASFjmBOleaTrM+tPHNto0KDswLyuhZ5TtuH+V155ZUAfMO9hOGRYY0+oX3Mx+AIjYAQ2HoFVJj2q2C2aa8CRyyxQtPLjGnpiaEGDwhSVYipILWLETZtKLsLbYkgcFYsYzoQN5IILLhg3QyoManFDW7Gp4XPmmWeOnh60HQpDDIvCNaoU9lggSyEbJ5xwwow41CxnHLtTTjllRvQeeOCBYffu3QNCEBAed+utt46eDF4LRR+YsX2R6FBBz8gqcNJn4v9ZHYgKDnDAO0l0duzYMWvbsjw9VGJ0vk0lPYhDV88fntVDJqhIZUUKeu9fVMK13lOz3GLM3nzzzdGTGGPxY3K8En6QQ8wJKN34G+tVxxbXXnfddTMiR4VMiY7+XvI4leYXvWhT5msJZ7QVH/YJijnXRY+nh0o25ADXV/auHk/PMkgP2gGvuD5L5wDkK+YriT7k2F/+8pfhjDPO6ApvY996lFyVn7g+Mw618pZauJXWKuXRzp07h4MOOmhGdEqhXlNyetSIQtID+RGfzbWJtaV9b/WZxgXIfpCRn/zkJ6NXHxgy2kH/hnzVfVY9ecAHY5x5rJX0cJ/kPsfwcpUvkAnHHnvsGHaNdt1xxx2zMPSe+bCorPP9RsAIrAMCq0x6FM6ouMwLNYUxPDVQjk477bTZ5ppZoKOSpsI8E9IU+FlODxQZ3AOrKxQSfJT0UGHWzZkxyjHXB+2CxQ0bKDY3hrfhX7675PGZx9PTCvmJuUMlz1zJu6bXQ4kkRkxCVaU3PiN7plpAgSuUR3iN6D2J7VPSE71JrblGT8Ljjz8+XqoW6iyUS5WUSKiVnGqbWmQC78X1iLfPlN1IdEux/NEr0up7/L3VzprSyPVHxYhe0SxPI6sQRoUzzh1iw2IISoixXmN4VZzrrfkFS/OU+ToFU+3nFNIT5VrM5ai1AeQtKsa4vsfTE72jJJbadi0OwzUDCz0NTq3wtpJhp9QnbQOV6RLpic+I3oiSwUXXfVTM8RvncmZ0ywwBGdb63F7PEPuDMVXPpn4P3GOxEf5Or6N6AEl06AGCUS4jPSRdur5g+ANJAYGK75zq6eGczPY5k54pUsbXGoFNhIBJz38Ho8ca3xq6UuhZKVeiRnqowCGk7PDDD58pu9k71OqmFjduICVyg/4wTAF/xxLRVKBr+UKxes1U0gMM9u7dO1rgYVm75ZZbinlDaCM32KyCEkPNmEfC8VIyCCUyFkroIT0IW9MPFfhDDz10VoyB5bZrpCebQ7QqPvPMM6OVEspyVEKnKCK1nB71cigRgLKHedQbdsd+MFwvKhlZLlcrNLK1vlqkJyqRfJ7OC3pX4eFg/oYq8ZGkaJtKZFtlR2xDL+kpza+ssEdtvtYwzLyw6kGCRwoeTy0br9/VsOF7Oe54xtFHHz0zBChGrfBJ7UMrp4dGAL5XK2vBcIP7IQeV9CiJUAW8VL0MY9oqw97j6SmtfXiiEOZIrzHWIf6fXutrrrlmLL6AT1wDOifRxtiHeUhPbCefAfn07ne/e78iM3p9NDxkckuNHxG3HtKjBkTtH2QxDFAIS4shtL2EsNSXWqge7ikV6GjJNP9uBIzABiJg0rOW9CxaupaCFU/NwsB0aGEhhEcIpAMhZMwHwTW0yGcKeov0qKLXIj08jwf3ZImpSnpwTc2i+6lPfWp44oknxpyW3g8JDDb5xx57bMwVgLIULe3R0xOt6drn6HWhokCiA0/PPKRHPTlxY9QKT/F9wLhEqKNlV5XSGAKYbdotT09WyCArs4r3agJxHL8W2Sj9zjYjBCli1DtH9Dp9Dz1mDEus5QxFskIShH+jElfLk1DyrGRf5+u8pKc0vzKiNQ/pybwI0QO5KOnRdYlxU0+jKoWZR67H0xPPXcnmbGaFVyU5W0doaykXjJ7Aq666ar8CIDo3e0lPSc7CiAPygw8MXbfffnuaz8g1AHLTMlCwIE3Mv2l5euKaw7xA7taDDz44kip4e5UcR3nIfKYsjDmuD+IB8nr11VdXDV7YF9EOhIczJC0zaNCIofMMe+FJJ5003Hvvvc38M87VkufYnp55pLfvMQKbAIFVJT0QZrACQnBSSdW4+3mHprSh4nuN2cfzqVyhHaXS0mgTPp/4xCe6PT1sewxjUxLWe05PydND5TyzbrUUZN1wNWzh7rvvnpEe9EGxjKSHChzzEXB9K6eHSuU8SiQUIlpj6YXhQbSZd6nH08NwMRA+LSwQlfnaXMxID6+PFt7aRl2at3xWa0z5u4a4cG4whKXHEtrytkZPBZ+pmCHEhZX/NKdLSYWGGJbmsMoDjHEtp0fDz6aSHircpfk1z3zN5kwkPcQAhheER00Jb4uFMPgslIPGRwsLxLVTms+t3I/Mw5GRnkxRnZf0REyyUMgob6G8I6wOBiCtkFhaSxwXyAGMA9rKf9UD2VqLwCfbw+b19MT5ofKDeYua28V1jnbGHE+uDy0GkO1TaoTD8954442xwIEaGOI80TFh7mpWJGHPnj2zXCcSJsWGRyZg7Bg5MZX06J6+rDzheXUR32cEjECCwKqSHhIdWspirkFmjeuZQFB4tOILyy0zSRNhCviUkoDVU8RwCobjcAPMwgVKihs9GqXwtl5Pj1b6UiUGbYzesZaCXFJusrMnaht9DJGpVW/T31pKJAkXSGLMgaGnK56S3vL0qJINC+l3v/vdWWUzKmQ8syKShVoeTIv01HJ6dD6XclhaihZ+175p8QkqAPDggYggTCuGnGgbMuUsrrlMgcZ3mN/6bPU4YI7iA0VS28TrST7jmlSCVavelh2cqKGXWUgYFcTSQa76/bzzNZNX0ZOIM1TwH3NCau3S6m1KenRMmIdBqz3kHsK08D0rZpWUwR7SU8rp0b5mxCSSnpIXnmuPY5YVbKDc0SIqug4o67Vcu7aPMp55n1gfnItRyc7mJsaQVeugvDOkC++4+eabx2fpM1URb+1hHJtsnWVGkwyL2AeMPYq+APNMlsW9lvIEYb48g0kNFsRPDwBHu+GBArkiBpij+DA0G3shSCjJz1133bWfx0cjD1jsY0pOTxZi6cNLW7POvxuBDURglUlPC+bMO1O7RzdKCOtSeEIWZsLnktBERUpDbnhtrN4GIa3WNlzXsq5H4hArplGpRrgFQxbiM9nm1snXStYyxScjPXrPdjwHQRWS1lhlc69FekrhbXiWltSN8w2/R2Wp1r5IdDMikhGOqKzGnLLaeispn7yHiiQURChcjMnP+sFnZbkALTnh3/+LAEnV1PNr8IQe0lMKb4uGoCgrpnh68I5IomsEsiT3oizmM/QwTxqMlIxG2RjnOdfWhRdeOBaqqa3dzFNUmq8tY1VvSFfJO4L3Rm8UMcJ44VM6ooDXAZuDDz54TUQAn6ve1ihXGTqtRS6Yt6byAkateDgpMAYBgxetFrqtRgFEb9jTY8loBDYhAiY99UGJoSqbcAjdJCNgBIyAETACRsAIGAEjYARqCJj0eH4YASNgBLYPApmHYdFS4dsHHffECBgBI2AEVhYBk56VHXp33AgYASNgBIyAETACRsAIrAYCJj2rMc7upREwAkbACBgBI2AEjIARWFkETHpWdujdcSNgBIyAETACRsAIGAEjsBoImPSsxji7l0bACBgBI2AEjIARMAJGYGURMOlZ2aF3x42AETACRsAIGAEjYASMwGogYNKzGuPsXhoBI2AEjIARMAJGwAgYgZVFwKRnZYfeHTcCRsAIGAEjYASMgBEwAquBgEnPaoyze2kEjIARMAJGwAgYASNgBFYWAZOelR16d9wIGAEjYASMgBEwAkbACKwGAiY9qzHO7qURMAJGwAgYASNgBIyAEVhZBEx6Vnbo3XEjYASMgBEwAkbACBgBI7AaCJj0rMY4u5dGwAgYASNgBIyAETACRmBlETDpWdmhd8eNgBEwAkbACBgBI2AEjMBqIGDSsxrj7F4aASNgBIyAETACRsAIGIGVRcCkZ2WH3h03AkbACBgBI2AEjIARMAKrgYBJz2qMs3tpBIyAETACRsAIGAEjYARWFgGTnpUdenfcCBgBI2AEjIARMAJGwAisBgImPasxzu6lETACRsAIGAEjYASMgBFYWQRMelZ26N1xI2AEjIARMAJGwAgYASOwGgiY9KzGOLuXRsAIGAEjYASMgBEwAkZgZREw6VnZoXfHjYARMAJGwAgYASNgBIzAaiCwLUnPE0+sxuC5l0bACBgBI2AEjIARMAJGwAi0EfjnP4dh925c9/DbhmH8Y70+b1uvB/O5/zsM/xmGYd3fs9798PONgBEwAkbACBgBI2AEjIARWBcEtgXpsYtnXeaGH2oEjIARMAJGwAgYASNgBLYFAv/c8p6ebTEM7oQRMAJGwAgYASNgBIyAETACWxYBh51t2aFzw42AETACRsAIGAEjYASMgBHoQcCkpwclX2MEjIARMAJGwAgYASNgBIzAlkXApGfLDp0bbgSMgBEwAkbACBgBI2AEjEAPAiY9PSj5GiNgBIyAETACRsAIGAEjYAS2LAImPVt26NxwI2AEjIARMAJGwAgYASNgBHoQMOnpQcnXGAEjYASMgBEwAkbACBgBI7BlETDp2bJD54YbASNgBIyAETACRsAIGAEj0IOASU8PSr7GCBgBI2AEjIARMAJGwAgYgS2LgEnPlh06N9wIGAEjYASMgBEwAkavMtS9AAABU0lEQVTACBiBHgRMenpQ8jVGwAgYASNgBIyAETACRsAIbFkETHq27NC54UbACBgBI2AEjIARMAJGwAj0IGDS04OSrzECRsAIGAEjYASMgBEwAkZgyyJg0rNlh84NNwJGwAgYASNgBIyAETACRqAHAZOeHpR8jREwAkbACBgBI2AEjIARMAJbFgGTni07dG64ETACRsAIGAEjYASMgBEwAj0ImPT0oORrjIARMAJGwAgYASNgBIyAEdiyCJj0bNmhc8ONgBEwAkbACBgBI2AEjIAR6EHApKcHJV9jBIyAETACRsAIGAEjYASMwJZFwKRnyw6dG24EjIARMAJGwAgYASNgBIxADwImPT0o+RojYASMgBEwAkbACBgBI2AEtiwCJj1bdujccCNgBIyAETACRsAIGAEjYAR6EDDp6UHJ1xgBI2AEjIARMAJGwAgYASOwZRH4/1xBP453cUY6AAAAAElFTkSuQmCC;" vertex="1" parent="1">
          <mxGeometry x="160" y="110" width="829" height="574" as="geometry" />
        </mxCell>
      </root>
    </mxGraphModel>
  </diagram>
</mxfile>
